<svg width="46" height="46" fill="currentColor" viewBox="0 0 24 24" xmlns="http://www.w3.org/2000/svg">
  <path fill-rule="evenodd" d="M12 2C6.48 2 2 6.48 2 12s4.48 10 10 10 10-4.48 10-10S17.52 2 12 2Zm-1.5 5c0 .28-.22.5-.5.5s-.5-.22-.5-.5.22-.5.5-.5.5.22.5.5ZM9 10c0-.55.45-1 1-1s1 .45 1 1-.45 1-1 1-1-.45-1-1Zm0 4c0-.55.45-1 1-1s1 .45 1 1-.45 1-1 1-1-.45-1-1ZM7 9.5c-.28 0-.5.22-.5.5s.22.5.5.5.5-.22.5-.5-.22-.5-.5-.5ZM9.5 17c0-.28.22-.5.5-.5s.5.22.5.5-.22.5-.5.5-.5-.22-.5-.5ZM7 13.5c-.28 0-.5.22-.5.5s.22.5.5.5.5-.22.5-.5-.22-.5-.5-.5ZM14 9c-.55 0-1 .45-1 1s.45 1 1 1 1-.45 1-1-.45-1-1-1Zm.5-2c0 .28-.22.5-.5.5s-.5-.22-.5-.5.22-.5.5-.5.5.22.5.5Zm2.5 6.5c-.28 0-.5.22-.5.5s.22.5.5.5.5-.22.5-.5-.22-.5-.5-.5Zm-.5-3.5c0-.28.22-.5.5-.5s.5.22.5.5-.22.5-.5.5-.5-.22-.5-.5ZM4 12c0 4.42 3.58 8 8 8s8-3.58 8-8-3.58-8-8-8-8 3.58-8 8Zm10 4.5c-.28 0-.5.22-.5.5s.22.5.5.5.5-.22.5-.5-.22-.5-.5-.5ZM13 14c0-.55.45-1 1-1s1 .45 1 1-.45 1-1 1-1-.45-1-1Z" clip-rule="evenodd"></path>
</svg>