<svg width="46" height="46" fill="currentColor" viewBox="0 0 24 24" xmlns="http://www.w3.org/2000/svg">
  <path d="m18.364 2-4.546 4.09v10L18.364 12V2ZM7 4.727c-1.773 0-3.682.364-5 1.364v13.327a.49.49 0 0 0 .455.455c.09 0 .136-.064.227-.064 1.227-.59 3-.99 4.318-.99 1.773 0 3.682.363 5 1.363 1.227-.773 3.454-1.364 5-1.364 1.5 0 3.046.282 4.318.964.091.045.136.027.227.027a.489.489 0 0 0 .455-.454V6.09c-.546-.41-1.136-.682-1.818-.91v12.273C19.182 17.136 18.09 17 17 17c-1.546 0-3.773.59-5 1.364V6.09c-1.318-1-3.227-1.363-5-1.363Z"></path>
</svg>