<svg width="46" height="46" fill="currentColor" viewBox="0 0 24 24" xmlns="http://www.w3.org/2000/svg">
  <path fill-rule="evenodd" d="M5 3h14c1.1 0 2 .9 2 2v14c0 1.1-.9 2-2 2H5c-1.1 0-2-.9-2-2V5c0-1.1.9-2 2-2Zm1 13.5c0 .83.67 1.5 1.5 1.5S9 17.33 9 16.5 8.33 15 7.5 15 6 15.67 6 16.5ZM7.5 9C6.67 9 6 8.33 6 7.5S6.67 6 7.5 6 9 6.67 9 7.5 8.33 9 7.5 9Zm3 3c0 .83.67 1.5 1.5 1.5s1.5-.67 1.5-1.5-.67-1.5-1.5-1.5-1.5.67-1.5 1.5Zm6 6c-.83 0-1.5-.67-1.5-1.5s.67-1.5 1.5-1.5 1.5.67 1.5 1.5-.67 1.5-1.5 1.5ZM15 7.5c0 .83.67 1.5 1.5 1.5S18 8.33 18 7.5 17.33 6 16.5 6 15 6.67 15 7.5Z" clip-rule="evenodd"></path>
</svg>