<svg width="46" height="46" fill="currentColor" viewBox="0 0 24 24" xmlns="http://www.w3.org/2000/svg">
  <path fill-rule="evenodd" d="M22.94 11.34a4.008 4.008 0 0 0-2.81-3.17 9.109 9.109 0 0 0-2.19-2.91A8.884 8.884 0 0 0 12 3c-2.28 0-4.36.85-5.94 2.26a8.93 8.93 0 0 0-2.19 2.91 3.994 3.994 0 0 0-2.81 3.17c-.04.21-.06.43-.06.66 0 .23.02.45.06.66a4.008 4.008 0 0 0 2.81 3.17 8.97 8.97 0 0 0 2.17 2.89A8.885 8.885 0 0 0 12 21c2.29 0 4.38-.86 5.97-2.28.9-.8 1.65-1.79 2.17-2.89a3.998 3.998 0 0 0 2.8-3.17c.04-.21.06-.43.06-.66 0-.23-.02-.45-.06-.66Zm-13.44.41a1.25 1.25 0 1 0 0-2.5 1.25 1.25 0 0 0 0 2.5Zm5 0a1.25 1.25 0 1 0 0-2.5 1.25 1.25 0 0 0 0 2.5Zm2 2.25c-.76 1.77-2.49 3-4.5 3s-3.74-1.23-4.5-3h9Zm2.311-.017c.063.008.124.017.189.017 1.1 0 2-.9 2-2s-.9-2-2-2a1.34 1.34 0 0 0-.189.017c-.033.005-.066.01-.101.013-.2-.67-.49-1.29-.86-1.86A6.977 6.977 0 0 0 12 5C9.55 5 7.4 6.26 6.15 8.17a7.17 7.17 0 0 0-.86 1.86 2.323 2.323 0 0 1-.102-.013A1.339 1.339 0 0 0 5 10c-1.1 0-2 .9-2 2s.9 2 2 2c.065 0 .126-.008.188-.017.034-.005.067-.01.102-.013.2.67.49 1.29.86 1.86A6.977 6.977 0 0 0 12 19c2.45 0 4.6-1.26 5.85-3.17.37-.57.66-1.19.86-1.86.035.003.068.008.101.013Z" clip-rule="evenodd"></path>
</svg>