<svg width="46" height="46" fill="currentColor" viewBox="0 0 24 24" xmlns="http://www.w3.org/2000/svg">
  <path fill-rule="evenodd" d="M10.23 4.037A6.996 6.996 0 0 1 16 1c3.87 0 7 3.13 7 7 0 3.53-2.61 6.43-6 6.92V18c0 .88-.39 1.67-1 2.22V22c0 .55-.45 1-1 1h-1c-.55 0-1-.45-1-1v-1H5v1c0 .55-.45 1-1 1H3c-.55 0-1-.45-1-1v-1.78c-.61-.55-1-1.34-1-2.22V8c0-3.5 3.58-4 8-4 .42 0 .84 0 1.24.02a.05.05 0 0 0-.01.015v.002ZM3 17.5c0 .83.67 1.5 1.5 1.5S6 18.33 6 17.5 5.33 16 4.5 16 3 16.67 3 17.5ZM3 13V8h6c0 1.96.81 3.73 2.11 5H3Zm9 4.5c0 .83.67 1.5 1.5 1.5s1.5-.67 1.5-1.5-.67-1.5-1.5-1.5-1.5.67-1.5 1.5Zm4-4.5c-2.76 0-5-2.24-5-5s2.24-5 5-5 5 2.24 5 5-2.24 5-5 5Zm-1-9h1.5v4.25l2.87 1.68-.75 1.23L15 9V4Z" clip-rule="evenodd"></path>
</svg>