<svg width="46" height="46" fill="currentColor" viewBox="0 0 24 24" xmlns="http://www.w3.org/2000/svg">
  <path fill-rule="evenodd" d="M3 6h18V4H3c-1.1 0-2 .9-2 2v12c0 1.1.9 2 2 2h4v-2H3V6Zm10 6H9v1.78c-.61.55-1 1.33-1 2.22 0 .89.39 1.67 1 2.22V20h4v-1.78c.61-.55 1-1.34 1-2.22 0-.88-.39-1.67-1-2.22V12Zm-3.5 4c0 .83.67 1.5 1.5 1.5s1.5-.67 1.5-1.5-.67-1.5-1.5-1.5-1.5.67-1.5 1.5ZM22 8h-6c-.5 0-1 .5-1 1v10c0 .5.5 1 1 1h6c.5 0 1-.5 1-1V9c0-.5-.5-1-1-1Zm-5 10h4v-8h-4v8Z" clip-rule="evenodd"></path>
</svg>