<svg width="46" height="46" fill="currentColor" viewBox="0 0 24 24" xmlns="http://www.w3.org/2000/svg">
  <path fill-rule="evenodd" d="M15.84 15.05c.2-.7.3-1.55.3-2.55h.01v-2.04c0-1.01-.1-1.85-.3-2.55-.2-.7-.48-1.26-.84-1.69-.36-.43-.8-.74-1.31-.93A4.81 4.81 0 0 0 12 5c-.62 0-1.19.1-1.69.29-.51.19-.95.5-1.31.93-.36.43-.64.99-.84 1.69-.2.7-.3 1.55-.3 2.55v2.04c0 1 .1 1.85.3 2.55.2.69.49 1.26.85 1.7.36.44.8.75 1.31.95.51.2 1.07.3 1.69.3.63 0 1.19-.1 1.7-.3.51-.2.94-.51 1.3-.95.35-.43.63-1 .83-1.7ZM13.9 8.52c.08.44.13.98.13 1.62h.01v2.66c0 .63-.04 1.17-.13 1.62-.09.45-.22.81-.39 1.09s-.38.48-.63.61-.54.19-.87.19c-.33 0-.62-.06-.87-.19s-.47-.33-.64-.61c-.17-.28-.31-.64-.4-1.09-.09-.44-.14-.98-.14-1.62v-2.67c0-.64.04-1.18.13-1.62.09-.44.23-.79.4-1.06s.39-.46.64-.58c.25-.12.54-.18.86-.18.32 0 .61.06.86.19.25.12.47.31.64.58.18.27.31.62.4 1.06Z" clip-rule="evenodd"></path>
</svg>