<svg width="46" height="46" fill="currentColor" viewBox="0 0 24 24" xmlns="http://www.w3.org/2000/svg">
  <path fill-rule="evenodd" d="M12 5.09C13.09 3.81 14.76 3 16.5 3 19.58 3 22 5.42 22 8.5c0 3.777-3.394 6.855-8.537 11.518l-.013.012L12 21.35l-1.45-1.31-.04-.036C5.383 15.344 2 12.27 2 8.5 2 5.42 4.42 3 7.5 3c1.74 0 3.41.81 4.5 2.09Zm0 13.56.1-.1C16.86 14.24 20 11.39 20 8.5c0-2-1.5-3.5-3.5-3.5-1.54 0-3.04.99-3.56 2.36h-1.87C10.54 5.99 9.04 5 7.5 5 5.5 5 4 6.5 4 8.5c0 2.89 3.14 5.74 7.9 10.05l.1.1Z" clip-rule="evenodd"></path>
</svg>