<svg width="46" height="46" fill="currentColor" viewBox="0 0 24 24" xmlns="http://www.w3.org/2000/svg">
  <path fill-rule="evenodd" d="M11.95 19c3.31 0 6-2.69 6-6h2c0 4.42-3.58 8-8 8s-8-3.58-8-8 3.58-8 8-8V1l5 5-5 5V7c-3.31 0-6 2.69-6 6s2.69 6 6 6Zm.3-3.68c.07-.04.13-.1.18-.17a.66.66 0 0 0 .11-.24c.02-.09.03-.19.03-.31s-.01-.21-.04-.31a.681.681 0 0 0-.13-.24.538.538 0 0 0-.21-.15.853.853 0 0 0-.3-.05c-.07 0-.15.01-.2.02-.05.01-.1.03-.15.05-.05.02-.08.04-.12.07-.04.03-.07.06-.1.09l-.67-.17.25-2.17h2.39v.71h-1.7l-.11.92a.311.311 0 0 0 .047-.021.766.766 0 0 1 .063-.029.732.732 0 0 1 .075-.025.89.89 0 0 0 .075-.025.819.819 0 0 1 .16-.037l.02-.003c.06-.01.13-.02.2-.02.21 0 .39.04.55.1.16.06.3.16.41.28.11.12.19.28.25.45.06.17.09.38.09.6 0 .19-.03.37-.09.54-.06.17-.15.32-.27.45-.12.13-.27.23-.45.31-.18.08-.4.12-.64.12-.18 0-.36-.03-.53-.08-.17-.05-.33-.13-.46-.24a1.22 1.22 0 0 1-.32-.39c-.08-.16-.12-.33-.13-.53h.84c.02.17.08.31.19.41.11.1.25.15.42.15.1 0 .2-.02.27-.06Z" clip-rule="evenodd"></path>
</svg>