<svg width="46" height="46" fill="currentColor" viewBox="0 0 24 24" xmlns="http://www.w3.org/2000/svg">
  <path fill-rule="evenodd" d="m17.73 12.02 3.98-3.98a.996.996 0 0 0 0-1.41l-4.34-4.34a.996.996 0 0 0-1.41 0l-3.98 3.98L8 2.29a1.001 1.001 0 0 0-1.41 0L2.25 6.63a.996.996 0 0 0 0 1.41l3.98 3.98L2.25 16a.996.996 0 0 0 0 1.41l4.34 4.34c.39.39 1.02.39 1.41 0l3.98-3.98 3.98 3.98c.2.2.45.29.71.29.26 0 .51-.1.71-.29l4.34-4.34a.996.996 0 0 0 0-1.41l-3.99-3.98ZM12 9c.55 0 1 .45 1 1s-.45 1-1 1-1-.45-1-1 .45-1 1-1ZM3.66 7.34l3.63 3.62 3.62-3.63-3.62-3.62-3.63 3.63ZM10 13c-.55 0-1-.45-1-1s.45-1 1-1 1 .45 1 1-.45 1-1 1Zm1 1c0 .55.45 1 1 1s1-.45 1-1-.45-1-1-1-1 .45-1 1Zm3-3c.55 0 1 .45 1 1s-.45 1-1 1-1-.45-1-1 .45-1 1-1Zm-.97 5.72 3.63 3.62 3.62-3.63-3.62-3.62-3.63 3.63Z" clip-rule="evenodd"></path>
</svg>