<svg width="46" height="46" fill="currentColor" viewBox="0 0 24 24" xmlns="http://www.w3.org/2000/svg">
  <path fill-rule="evenodd" d="M17.5 4.5c1.17 0 2.39.15 3.5.5.75.25 1.4.55 2 1v14.6c0 .25-.25.5-.5.5-.1 0-.15 0-.25-.05-1.4-.75-3.1-1.05-4.75-1.05-1.7 0-4.15.65-5.5 1.5-1.45-1.1-3.55-1.5-5.5-1.5-1.45 0-3.4.45-4.75 1.1a.36.36 0 0 0-.125.025c-.038.012-.075.025-.125.025-.25 0-.5-.25-.5-.5V6c1.45-1.1 3.55-1.5 5.5-1.5 1.95 0 4.05.4 5.5 1.5 1.45-1.1 3.55-1.5 5.5-1.5Zm0 13.5c1.2 0 2.4.15 3.5.5V7c-1.1-.35-2.3-.5-3.5-.5-1.7 0-4.15.65-5.5 1.5v11.5c1.35-.85 3.8-1.5 5.5-1.5Z" clip-rule="evenodd"></path>
</svg>