<svg width="46" height="46" fill="currentColor" viewBox="0 0 24 24" xmlns="http://www.w3.org/2000/svg">
  <path fill-rule="evenodd" d="M8.5 3.5C8.5 4.33 7.83 5 7 5s-1.5-.67-1.5-1.5C5.5 2.5 7 .8 7 .8s1.5 1.7 1.5 2.7ZM12 5c.83 0 1.5-.67 1.5-1.5 0-1-1.5-2.7-1.5-2.7s-1.5 1.7-1.5 2.7c0 .83.67 1.5 1.5 1.5Zm5 0c.83 0 1.5-.67 1.5-1.5 0-1-1.5-2.7-1.5-2.7s-1.5 1.7-1.5 2.7c0 .83.67 1.5 1.5 1.5Zm1.92 3.01C18.72 7.42 18.16 7 17.5 7h-11c-.66 0-1.21.42-1.42 1.01L3 14v8c0 .55.45 1 1 1h1c.55 0 1-.45 1-1v-1h12v1c0 .55.45 1 1 1h1c.55 0 1-.45 1-1v-8l-2.08-5.99ZM5 16.5c0 .83.67 1.5 1.5 1.5S8 17.33 8 16.5 7.33 15 6.5 15 5 15.67 5 16.5ZM17.5 18c-.83 0-1.5-.67-1.5-1.5s.67-1.5 1.5-1.5 1.5.67 1.5 1.5-.67 1.5-1.5 1.5Zm-11-9.5L5 13h14l-1.5-4.5h-11Z" clip-rule="evenodd"></path>
</svg>