<svg width="46" height="46" fill="currentColor" viewBox="0 0 24 24" xmlns="http://www.w3.org/2000/svg">
  <path fill-rule="evenodd" d="m21.41 11.58-9-9C12.05 2.22 11.55 2 11 2H4c-1.1 0-2 .9-2 2v7c0 .55.22 1.05.59 1.42l9 9c.36.36.86.58 1.41.58.55 0 1.05-.22 1.41-.59l7-7c.37-.36.59-.86.59-1.41 0-.55-.23-1.06-.59-1.42ZM5.5 7C4.67 7 4 6.33 4 5.5S4.67 4 5.5 4 7 4.67 7 5.5 6.33 7 5.5 7ZM13 19.54l4.27-4.27a2.5 2.5 0 0 0-3.54-3.54l-.73.73-.73-.72A2.47 2.47 0 0 0 10.5 11a2.5 2.5 0 0 0-1.77 4.27L13 19.54Z" clip-rule="evenodd"></path>
</svg>