<svg width="46" height="46" fill="currentColor" viewBox="0 0 24 24" xmlns="http://www.w3.org/2000/svg">
  <path fill-rule="evenodd" d="M7 3h15c1.1 0 2 .9 2 2v14c0 1.1-.9 2-2 2H7.07c-.69 0-1.3-.36-1.66-.89L0 12l5.41-8.12C5.77 3.35 6.31 3 7 3Zm.5 9c0 .83.67 1.5 1.5 1.5s1.5-.67 1.5-1.5-.67-1.5-1.5-1.5-1.5.67-1.5 1.5Zm6.5 1.5c-.83 0-1.5-.67-1.5-1.5s.67-1.5 1.5-1.5 1.5.67 1.5 1.5-.67 1.5-1.5 1.5Zm3.5-1.5c0 .83.67 1.5 1.5 1.5s1.5-.67 1.5-1.5-.67-1.5-1.5-1.5-1.5.67-1.5 1.5Z" clip-rule="evenodd"></path>
</svg>