<svg width="46" height="46" fill="currentColor" viewBox="0 0 24 24" xmlns="http://www.w3.org/2000/svg">
  <path fill-rule="evenodd" d="M9 8a2.5 2.5 0 1 0 0-5 2.5 2.5 0 0 0 0 5Zm-4.5 4a2.5 2.5 0 1 0 0-5 2.5 2.5 0 0 0 0 5Zm13-6.5a2.5 2.5 0 1 1-5 0 2.5 2.5 0 0 1 5 0Zm2 6.5a2.5 2.5 0 1 0 0-5 2.5 2.5 0 0 0 0 5Zm-3.058 1.804c.29.342.585.69.898 1.056l.236.235c1.259 1.25 2.666 2.646 2.374 4.565-.29 1.01-1.02 2.03-2.33 2.32-.336.064-1.01-.024-1.883-.137-1.023-.134-2.318-.303-3.657-.303h-.18c-1.327 0-2.612.169-3.63.303-.886.117-1.57.207-1.91.137-1.31-.29-2.04-1.3-2.33-2.32-.282-1.908 1.124-3.304 2.382-4.553l.238-.237c.563-.653 1.065-1.245 1.582-1.853l.898-1.057c.47-.54 1.05-1.08 1.75-1.32.11-.04.22-.07.33-.09.26-.05.53-.05.79-.05s.53 0 .78.04c.11.02.22.05.33.09.7.24 1.29.78 1.75 1.32a283.59 283.59 0 0 1 1.582 1.854Z" clip-rule="evenodd"></path>
</svg>