<svg width="46" height="46" fill="currentColor" viewBox="0 0 24 24" xmlns="http://www.w3.org/2000/svg">
  <path fill-rule="evenodd" d="M11.462 11.37 6.72 6.43V9H4.8V3h5.76v2H8.064l3.398 3.54 5.434-5.66L18.25 4.3l-6.788 7.07Zm.058.63c4.358 0 8.314 1.78 11.242 4.67a1.018 1.018 0 0 1 .01 1.41l-2.382 2.48a.938.938 0 0 1-.681.29.923.923 0 0 1-.672-.28 11.323 11.323 0 0 0-2.563-1.85 1.012 1.012 0 0 1-.538-.9v-3.1A13.79 13.79 0 0 0 11.52 14c-1.536 0-3.024.25-4.416.73v3.1a1 1 0 0 1-.538.9 10.97 10.97 0 0 0-2.553 1.85.964.964 0 0 1-.672.28.938.938 0 0 1-.682-.29L.28 18.09a1.02 1.02 0 0 1-.28-.71c0-.28.106-.53.278-.71C3.206 13.78 7.162 12 11.52 12Z" clip-rule="evenodd"></path>
</svg>