<svg width="46" height="46" fill="currentColor" viewBox="0 0 24 24" xmlns="http://www.w3.org/2000/svg">
  <path fill-rule="evenodd" d="M19.41 9.25h-2.592V6H4.728C3.777 6 3 6.731 3 7.625v8.938h1.727C4.727 17.91 5.885 19 7.318 19c1.434 0 2.591-1.089 2.591-2.438h5.182c0 1.35 1.157 2.438 2.59 2.438 1.434 0 2.592-1.089 2.592-2.438H22V12.5l-2.59-3.25ZM7.316 17.374c-.475 0-.864-.365-.864-.812 0-.447.39-.813.864-.813.475 0 .864.366.864.813 0 .447-.389.812-.864.812ZM20.67 12.5l-1.692-2.031h-2.16V12.5h3.852Zm-2.988 4.874c-.475 0-.863-.365-.863-.812 0-.447.388-.813.863-.813s.864.366.864.813c0 .447-.389.812-.864.812Zm-7.877-5.576L12.78 9l.636.603L9.806 13 8 11.302l.636-.6 1.17 1.096Z" clip-rule="evenodd"></path>
</svg>