<svg width="46" height="46" fill="currentColor" viewBox="0 0 24 24" xmlns="http://www.w3.org/2000/svg">
  <path fill-rule="evenodd" d="m10 8-3.25 3.25c.28.108.51.241.708.354l.062.036c.37.23.59.36 1.15.36.56 0 .78-.13 1.15-.36l.013-.008c.458-.269 1.077-.632 2.177-.632 1.11 0 1.73.37 2.18.64l.01.006c.365.217.595.354 1.14.354.55 0 .78-.13 1.15-.36.12-.07.26-.15.41-.23L10.48 5C8.93 3.45 7.5 2.99 5 3v2.5c1.82-.01 2.89.39 4 1.5l1 1Zm-4.65 7.5c.544 0 .775.137 1.139.353l.011.007c.45.27 1.07.64 2.18.64s1.73-.37 2.18-.64c.37-.23.59-.36 1.15-.36.545 0 .776.137 1.14.354l.01.006c.45.27 1.07.64 2.18.64s1.73-.37 2.18-.64c.37-.23.59-.36 1.15-.36.544 0 .775.137 1.14.353l.01.007c.45.27 1.06.63 2.16.64v-2c-.545 0-.776-.137-1.14-.354l-.01-.006c-.45-.27-1.07-.64-2.18-.64s-1.73.37-2.18.64c-.37.23-.6.36-1.15.36-.544 0-.775-.137-1.14-.353l-.01-.007c-.45-.27-1.07-.64-2.18-.64s-1.73.37-2.18.64c-.37.23-.59.36-1.15.36-.545 0-.776-.137-1.14-.354l-.01-.006c-.45-.27-1.07-.64-2.18-.64s-1.73.37-2.18.64c-.37.23-.59.36-1.15.36v2c1.087 0 1.704-.355 2.17-.623l.03-.017c.37-.23.6-.36 1.15-.36ZM18.67 18c-1.11 0-1.73.37-2.18.64-.37.23-.6.36-1.15.36-.544 0-.775-.137-1.14-.353l-.01-.007c-.45-.27-1.07-.64-2.18-.64-1.1 0-1.719.363-2.177.633l-.013.007c-.37.23-.59.36-1.15.36-.56 0-.78-.13-1.15-.36-.45-.27-1.07-.64-2.18-.64-1.1 0-1.718.363-2.177.632l-.013.008c-.37.23-.59.36-1.15.36v2c1.1 0 1.719-.363 2.177-.633l.013-.007c.37-.23.6-.36 1.15-.36.55 0 .78.13 1.15.36.45.27 1.07.64 2.18.64 1.1 0 1.718-.363 2.177-.632l.013-.008c.37-.23.59-.36 1.15-.36.545 0 .776.137 1.14.354l.01.006c.45.27 1.07.64 2.18.64 1.09 0 1.699-.357 2.156-.626l.024-.014c.37-.23.59-.36 1.15-.36.544 0 .775.137 1.14.353l.01.007c.45.27 1.07.64 2.18.64v-2c-.56 0-.78-.13-1.15-.36-.45-.27-1.07-.64-2.18-.64ZM19 5.5a2.5 2.5 0 1 1-5 0 2.5 2.5 0 0 1 5 0Z" clip-rule="evenodd"></path>
</svg>