<svg width="46" height="46" fill="currentColor" viewBox="0 0 24 24" xmlns="http://www.w3.org/2000/svg">
  <path fill-rule="evenodd" d="M13 2h-2v5h2V2Zm6.75 2.85 1.41 1.41c-.11.03-3.56 3.55-3.56 3.55L16.19 8.4l3.56-3.55ZM12 12c4.54 0 8.66 1.78 11.71 4.67.18.18.29.43.29.7 0 .28-.11.53-.29.71l-2.48 2.48c-.18.18-.43.29-.71.29-.27 0-.52-.1-.7-.28-.79-.73-1.68-1.36-2.66-1.85-.33-.16-.56-.51-.56-.9v-3.1c-1.45-.47-3-.72-4.6-.72-1.6 0-3.15.25-4.6.73v3.1c0 .4-.23.74-.56.9-.97.49-1.87 1.11-2.66 1.85-.18.17-.43.28-.7.28-.28 0-.53-.11-.71-.29L.29 18.09a.997.997 0 0 1-.29-.71c0-.28.11-.53.29-.71C3.34 13.78 7.46 12 12 12ZM7.81 8.4 6.4 9.81S2.95 6.29 2.84 6.26l1.42-1.42L7.81 8.4Z" clip-rule="evenodd"></path>
</svg>