<svg width="46" height="46" fill="currentColor" viewBox="0 0 24 24" xmlns="http://www.w3.org/2000/svg">
  <path fill-rule="evenodd" d="M20.157 7.969h-3.064V4.125h-14.3C1.669 4.125.75 4.99.75 6.047v10.57h2.043c0 1.595 1.369 2.883 3.064 2.883 1.696 0 3.064-1.288 3.064-2.883h6.129c0 1.595 1.369 2.883 3.064 2.883 1.696 0 3.064-1.288 3.064-2.883h2.043v-4.805L20.157 7.97ZM5.856 17.577c-.562 0-1.022-.432-1.022-.96 0-.53.46-.962 1.022-.962s1.021.433 1.021.961c0 .529-.46.961-1.021.961Zm15.793-5.765L19.647 9.41h-2.554v2.402h4.556Zm-3.535 5.765c-.561 0-1.02-.432-1.02-.96 0-.53.459-.962 1.02-.962.562 0 1.022.433 1.022.961 0 .529-.46.961-1.021.961ZM5.474 10.01c0-1.99 1.715-3.604 3.83-3.604 2.114 0 3.83 1.615 3.83 3.604s-1.716 3.603-3.83 3.603c-2.115 0-3.83-1.614-3.83-3.603Zm3.83 2.885c-1.69 0-3.065-1.294-3.065-2.883 0-1.59 1.375-2.883 3.064-2.883 1.69 0 3.064 1.293 3.064 2.883 0 1.589-1.375 2.883-3.064 2.883Zm-.275-5.222h.582V9.71l1.744 1.035-.29.477L9.029 10V7.673Z" clip-rule="evenodd"></path>
</svg>