<svg width="46" height="46" fill="currentColor" viewBox="0 0 24 24" xmlns="http://www.w3.org/2000/svg">
  <path fill-rule="evenodd" d="M12 1C5.93 1 1 5.93 1 12s4.93 11 11 11 11-4.93 11-11S18.07 1 12 1Zm3 5.5c0-.83-.67-1.5-1.5-1.5h-3C9.67 5 9 5.67 9 6.5S9.67 8 10.5 8h3c.83 0 1.5-.67 1.5-1.5Zm-7 5c0-.83-.67-1.5-1.5-1.5S5 10.67 5 11.5 5.67 13 6.5 13 8 12.33 8 11.5Zm-1 5c0-.83.67-1.5 1.5-1.5s1.5.67 1.5 1.5S9.33 18 8.5 18 7 17.33 7 16.5ZM3 12c0 4.96 4.04 9 9 9s9-4.04 9-9-4.04-9-9-9-9 4.04-9 9Zm14.5-2c-.83 0-1.5.67-1.5 1.5s.67 1.5 1.5 1.5 1.5-.67 1.5-1.5-.67-1.5-1.5-1.5ZM14 16.5c0-.83.67-1.5 1.5-1.5s1.5.67 1.5 1.5-.67 1.5-1.5 1.5-1.5-.67-1.5-1.5Z" clip-rule="evenodd"></path>
</svg>