<svg width="46" height="46" fill="currentColor" viewBox="0 0 24 24" xmlns="http://www.w3.org/2000/svg">
  <path fill-rule="evenodd" d="M19 3H5a2 2 0 0 0-2 2v14a2 2 0 0 0 2 2h14a2 2 0 0 0 2-2V5a2 2 0 0 0-2-2Zm-7 7c-1.1 0-2 .9-2 2s.9 2 2 2 2-.9 2-2-.9-2-2-2Zm5.2 2.68c.03-.22.05-.45.05-.68 0-.23-.02-.46-.05-.69l1.48-1.16c.13-.11.17-.3.08-.45l-1.4-2.42c-.09-.15-.27-.21-.43-.15l-1.74.7c-.36-.28-.75-.51-1.18-.69l-.26-1.85A.364.364 0 0 0 13.4 5h-2.8c-.17 0-.32.13-.35.3l-.26 1.85c-.42.18-.82.41-1.18.69l-1.74-.7c-.16-.06-.34 0-.43.15l-1.4 2.42c-.09.15-.05.34.08.45l1.48 1.16c-.03.22-.05.45-.05.68 0 .23.02.46.05.69l-1.48 1.16c-.13.11-.17.3-.08.45l1.4 2.42c.09.15.27.21.43.15l1.74-.7c.36.28.75.51 1.18.69l.26 1.85c.03.16.18.29.35.29h2.8c.17 0 .32-.13.35-.3l.26-1.85c.42-.18.82-.41 1.18-.69l1.74.7c.16.06.34 0 .43-.15l1.4-2.42c.09-.15.05-.34-.08-.45l-1.48-1.16Z" clip-rule="evenodd"></path>
</svg>