<svg width="46" height="46" fill="currentColor" viewBox="0 0 24 24" xmlns="http://www.w3.org/2000/svg">
  <path fill-rule="evenodd" d="M17.8 2.8C16 2.09 13.86 2 12 2c-1.86 0-4 .09-5.8.8C3.53 3.84 2 6.05 2 8.86V22h20V8.86c0-2.81-1.53-5.02-4.2-6.06ZM17.01 9h-10v5h10V9ZM8.5 17a1 1 0 1 0 0-2 1 1 0 0 0 0 2Zm7 0a1 1 0 1 0 0-2 1 1 0 0 0 0 2Zm-.15 1.46A2.979 2.979 0 0 0 18 15.5V9c0-2.63-3-3-6-3s-6 .37-6 3v6.5c0 1.54 1.16 2.79 2.65 2.96L7.5 19.62V20h1.67l1.5-1.5h2.66l1.5 1.5h1.67v-.38l-1.15-1.16Z" clip-rule="evenodd"></path>
</svg>