<svg width="46" height="46" fill="currentColor" viewBox="0 0 24 24" xmlns="http://www.w3.org/2000/svg">
  <path fill-rule="evenodd" d="M12 2C6.48 2 2 6.48 2 12s4.48 10 10 10 10-4.48 10-10S17.52 2 12 2Zm3.61 6.34c1.07 0 1.93.86 1.93 1.93 0 1.07-.86 1.93-1.93 1.93-1.07 0-1.93-.86-1.93-1.93-.01-1.07.86-1.93 1.93-1.93Zm-3.64.78c0-1.3-1.06-2.36-2.36-2.36-1.31 0-2.36 1.05-2.36 2.36 0 1.3 1.06 2.36 2.36 2.36 1.3 0 2.36-1.06 2.36-2.36Zm-2.36 6.77v3.75c-2.4-.75-4.3-2.6-5.14-4.96 1.05-1.12 3.67-1.69 5.14-1.69.53 0 1.2.08 1.9.22-1.64.87-1.9 2.02-1.9 2.68Zm1.6 4.07c.26.03.52.04.79.04 3.39 0 6.28-2.12 7.45-5.09-.92-.76-2.77-1.15-3.84-1.15-1.46 0-4.4.71-4.4 2.13v4.07Z" clip-rule="evenodd"></path>
</svg>