<svg width="46" height="46" fill="currentColor" viewBox="0 0 24 24" xmlns="http://www.w3.org/2000/svg">
  <path d="M4.727 6c-.458 0-.897.171-1.221.476A1.578 1.578 0 0 0 3 7.625v8.938h1.727c0 .646.273 1.266.76 1.723a2.676 2.676 0 0 0 1.83.714c.687 0 1.346-.257 1.832-.714a2.367 2.367 0 0 0 .76-1.724h5.18c0 .647.274 1.267.76 1.724a2.676 2.676 0 0 0 1.832.714c.687 0 1.346-.257 1.832-.714a2.366 2.366 0 0 0 .759-1.724H22V12.5l-2.59-3.25h-2.592V6H4.728Zm6.046 1.625 3.454 3.25-3.454 3.25v-2.438H5.59v-1.624h5.182V7.624Zm6.045 2.844h2.16l1.7 2.031h-3.86v-2.031Zm-9.5 4.875c.344 0 .673.128.916.357.243.228.38.538.38.861 0 .324-.137.634-.38.862a1.338 1.338 0 0 1-.916.357c-.343 0-.673-.128-.916-.357a1.183 1.183 0 0 1-.38-.861c0-.324.137-.634.38-.862.243-.229.573-.357.916-.357Zm10.364 0c.343 0 .673.128.916.357.243.228.38.538.38.861 0 .324-.137.634-.38.862a1.338 1.338 0 0 1-.916.357c-.344 0-.673-.128-.916-.357a1.184 1.184 0 0 1-.38-.861c0-.324.137-.634.38-.862.243-.229.572-.357.916-.357Z"></path>
</svg>