<svg width="46" height="46" fill="currentColor" viewBox="0 0 24 24" xmlns="http://www.w3.org/2000/svg">
  <path fill-rule="evenodd" d="m2.01 3.87 1.41-1.42L21.15 20.2l-1.41 1.41-3.43-3.43c-1.34.52-2.79.82-4.31.82-5 0-9.27-3.11-11-7.5.77-1.97 2.06-3.67 3.69-4.95L2.01 3.87ZM17 11.5c0-2.76-2.24-5-5-5-.51 0-1 .1-1.47.24L8.36 4.57C9.51 4.2 10.73 4 12 4c5 0 9.27 3.11 11 7.49-.69 1.76-1.79 3.3-3.18 4.53l-3.06-3.06c.14-.46.24-.95.24-1.46Zm-5 5c-2.76 0-5-2.24-5-5 0-.77.18-1.5.49-2.14l1.57 1.57c-.03.18-.06.37-.06.57 0 1.66 1.34 3 3 3 .2 0 .38-.03.57-.07L14.14 16c-.65.32-1.37.5-2.14.5Zm2.97-5.33a2.97 2.97 0 0 0-2.64-2.64l2.64 2.64Z" clip-rule="evenodd"></path>
</svg>