<svg width="46" height="46" fill="currentColor" viewBox="0 0 24 24" xmlns="http://www.w3.org/2000/svg">
  <path fill-rule="evenodd" d="M19.95 4.46c-.75-.38-1.58-.8-2.95-.8s-2.2.42-2.95.8l-.08.04c-.614.303-1.136.56-1.97.56-.9 0-1.4-.25-2.05-.6l-.078-.039c-.73-.36-1.54-.761-2.872-.761-1.371 0-2.19.415-2.936.793l-.014.007-.026.013c-.638.324-1.156.587-2.024.587v1.93c1.33 0 2.174-.417 2.915-.783l.035-.017.025-.013C5.614 5.853 6.132 5.59 7 5.59c.88 0 1.4.25 2.05.6l.014.007c.746.378 1.565.793 2.936.793 1.332 0 2.143-.4 2.872-.761l.078-.039.08-.04c.614-.303 1.136-.56 1.97-.56.9 0 1.4.25 2.05.6.75.38 1.58.8 2.95.8V5.04c-.9 0-1.4-.25-2.05-.58Zm-5.865 8.863c.741-.366 1.586-.783 2.915-.783 1.35 0 2.2.42 2.95.8.65.35 1.15.6 2.05.6v1.95c-1.37 0-2.2-.42-2.95-.8-.65-.35-1.15-.6-2.05-.6-.9 0-1.4.25-2.05.6l-.078.039c-.73.36-1.54.761-2.872.761-1.371 0-2.19-.415-2.936-.793l-.014-.007c-.65-.35-1.15-.6-2.05-.6-.9 0-1.4.25-2.05.6l-.035.017c-.741.366-1.586.783-2.915.783v-1.95c.836 0 1.347-.252 1.953-.552l.097-.048.078-.039c.73-.36 1.54-.761 2.872-.761 1.371 0 2.19.415 2.936.793l.014.007c.65.35 1.15.6 2.05.6.834 0 1.356-.257 1.97-.56l.08-.04.035-.017Zm-.035 4.467c.75-.38 1.6-.8 2.95-.8s2.2.42 2.95.8c.65.35 1.15.6 2.05.6v1.95c-1.37 0-2.2-.42-2.95-.8-.65-.35-1.15-.6-2.05-.6-.868 0-1.398.269-2.046.598l-.004.002-.014.007c-.746.378-1.565.793-2.936.793s-2.19-.415-2.936-.793l-.014-.007c-.65-.35-1.17-.6-2.05-.6-.868 0-1.386.263-2.024.587l-.026.013c-.75.38-1.6.8-2.95.8v-1.95c.868 0 1.386-.263 2.024-.587l.026-.013.014-.007C4.81 17.405 5.63 16.99 7 16.99s2.19.415 2.936.793l.014.007c.65.35 1.15.6 2.05.6.868 0 1.398-.269 2.046-.598l.004-.002Zm.035-8.917c.741-.366 1.586-.783 2.915-.783 1.35 0 2.2.42 2.95.8.65.35 1.15.6 2.05.6v1.95c-1.37 0-2.2-.42-2.95-.8-.65-.35-1.15-.6-2.05-.6-.834 0-1.356.257-1.97.56l-.08.04-.078.039c-.73.36-1.54.761-2.872.761-1.371 0-2.19-.415-2.936-.793l-.014-.007c-.65-.35-1.18-.6-2.05-.6-.834 0-1.356.257-1.97.56l-.08.04-.035.017c-.741.366-1.586.783-2.915.783V9.49c.9 0 1.4-.25 2.05-.6l.078-.039c.73-.36 1.54-.761 2.872-.761 1.371 0 2.19.415 2.936.793l.014.007c.65.35 1.15.6 2.05.6.9 0 1.4-.25 2.05-.6l.035-.017Z" clip-rule="evenodd"></path>
</svg>