<svg width="46" height="46" fill="currentColor" viewBox="0 0 24 24" xmlns="http://www.w3.org/2000/svg">
  <path d="M19 3H5c-1.1 0-2 .9-2 2v14c0 1.1.9 2 2 2h14c1.1 0 2-.9 2-2V5c0-1.1-.9-2-2-2Zm0 16H5V5h14v14Z"></path>
  <path d="M14.5 11.5H16v-6h-3V7h1.5v4.5Z"></path>
  <path d="M12 10H9V9h2c.55 0 1-.45 1-1V6.5c0-.55-.45-1-1-1H7.5V7h3v1h-2c-.55 0-1 .45-1 1v2.5H12V10Z"></path>
  <path d="M7.5 14h1v3H10v-3h1v4.5h1.5v-5c0-.55-.45-1-1-1H7c-.55 0-1 .45-1 1v5h1.5V14Z"></path>
  <path d="M15 17h2c.55 0 1-.45 1-1v-2.5c0-.55-.45-1-1-1h-3.5v6H15V17Zm0-3h1.5v1.5H15V14Z"></path>
</svg>