<svg width="46" height="46" fill="currentColor" viewBox="0 0 24 24" xmlns="http://www.w3.org/2000/svg">
  <path d="M10.263 6.385c.62-.18 1.28-.29 1.96-.29 3.86 0 7 3.14 7 7 0 .68-.11 1.34-.29 1.96l1.56 1.56c.47-1.08.73-2.27.73-3.52a9 9 0 0 0-12.53-8.28l1.57 1.57Zm7.297-4.48 4.607 3.845-1.28 1.535-4.61-3.843 1.283-1.537Zm-14.317.29-1.41 1.41 1.37 1.37-.92.77 1.28 1.54 1.06-.88.8.8a8.964 8.964 0 0 0-2.2 5.89 9 9 0 0 0 9 9c2.25 0 4.31-.83 5.89-2.2l2.1 2.1 1.41-1.41-18.38-18.39Zm8.98 17.9c-3.86 0-7-3.14-7-7 0-1.7.61-3.26 1.62-4.47l9.85 9.85a6.956 6.956 0 0 1-4.47 1.62Zm-4.52-16.27.46-.38-1.28-1.54-.6.5 1.42 1.42Z"></path>
</svg>