<svg width="46" height="46" fill="currentColor" viewBox="0 0 24 24" xmlns="http://www.w3.org/2000/svg">
  <path d="M22.47 6.95c-.47-.24-.96-.44-1.47-.61v12.03c-1.14-.41-2.31-.62-3.5-.62-1.9 0-3.78.54-5.5 1.58V7.23c-1.62-.93-3.49-1.48-5.5-1.48-1.79 0-3.48.44-4.97 1.2-.33.16-.53.51-.53.88v12.08c0 .58.47.99 1 .99.16 0 .32-.04.48-.12 1.21-.63 2.57-1.03 4.02-1.03 2.07 0 3.98.82 5.5 2 1.52-1.18 3.43-2 5.5-2 1.45 0 2.81.4 4.02 1.04.16.08.32.12.48.12.52 0 1-.41 1-.99V7.83c0-.37-.2-.72-.53-.88ZM10 18.37c-1.14-.41-2.31-.62-3.5-.62s-2.36.21-3.5.62V8.46c1.11-.47 2.28-.71 3.5-.71 1.2 0 2.39.25 3.5.72v9.9Zm9-16.12-5 5v9.5l5-4.5v-10Z"></path>
</svg>