<svg width="46" height="46" fill="currentColor" viewBox="0 0 24 24" xmlns="http://www.w3.org/2000/svg">
  <path d="m19.501 7.5.94-2.06 2.06-.94-2.06-.94-.94-2.06-.94 2.06-2.06.94 2.06.94.94 2.06Z"></path>
  <path d="m17.211 9.62-2.83-2.83c-.2-.19-.45-.29-.71-.29-.26 0-.51.1-.71.29L1.791 17.96a.996.996 0 0 0 0 1.41l2.83 2.83c.2.2.45.3.71.3.26 0 .51-.1.71-.29l11.17-11.17c.39-.39.39-1.03 0-1.42Zm-3.54-.7 1.41 1.41-1.17 1.17-1.41-1.41 1.17-1.17Zm-8.34 11.17-1.41-1.41 7.17-7.18 1.41 1.41-7.17 7.18Z"></path>
</svg>