<svg width="46" height="46" fill="currentColor" viewBox="0 0 24 24" xmlns="http://www.w3.org/2000/svg">
  <path d="m19.805 7.195.94-2.06 2.06-.94-2.06-.94-.94-2.06-.94 2.06-2.06.94 2.06.94.94 2.06Z"></path>
  <path d="m13.975 8.615 1.41 1.41-1.46 1.46 1.41 1.41 2.17-2.17a.996.996 0 0 0 0-1.41l-2.83-2.83a.984.984 0 0 0-.7-.29c-.26 0-.51.1-.71.29l-2.17 2.17 1.41 1.41 1.47-1.45Z"></path>
  <path d="m1.195 4.415 7.07 7.07-6.17 6.17a.996.996 0 0 0 0 1.41l2.83 2.83c.2.2.45.3.71.3.26 0 .51-.1.71-.29l6.17-6.17 7.07 7.07 1.41-1.41-18.38-18.39-1.42 1.41Zm9.9 9.9-5.46 5.46-1.41-1.41 5.46-5.46 1.41 1.41Z"></path>
</svg>