<svg width="46" height="46" fill="currentColor" viewBox="0 0 24 24" xmlns="http://www.w3.org/2000/svg">
  <path d="m20.996 19.571-1.427 1.428-6.442-6.442 1.43-1.428 6.44 6.442Zm-7.88-16.57c-2.58 0-5.16.98-7.14 2.95l-.01.01c-3.95 3.95-3.95 10.36 0 14.31l14.3-14.31a10.086 10.086 0 0 0-7.15-2.96Zm-6.98 14.27a8.063 8.063 0 0 1-.68-6.82c.19 1.91.89 3.79 2.07 5.44l-1.39 1.38Zm2.84-2.84c-1.35-2.05-1.86-4.5-1.38-6.83.58-.12 1.16-.18 1.75-.18 1.8 0 3.55.55 5.08 1.56l-5.45 5.45Zm1.47-8.97a8.063 8.063 0 0 1 6.82.68l-1.39 1.39a11.25 11.25 0 0 0-5.43-2.07Z"></path>
</svg>