<svg width="46" height="46" fill="currentColor" viewBox="0 0 24 24" xmlns="http://www.w3.org/2000/svg">
  <path d="m14.235 12.01 2.32 2.32c.28-.72.44-1.51.44-2.33 0-.82-.16-1.59-.43-2.31l-2.33 2.32Zm5.29-5.3-1.26 1.26c.63 1.21.98 2.57.98 4.02 0 1.45-.36 2.82-.98 4.02l1.2 1.2a9.936 9.936 0 0 0 1.54-5.31c-.01-1.89-.55-3.67-1.48-5.19Zm-3.82 1L9.995 2h-1v7.59L4.405 5l-1.41 1.41L8.585 12l-5.59 5.59L4.405 19l4.59-4.59V22h1l5.71-5.71-4.3-4.29 4.3-4.29Zm-4.71-1.88 1.88 1.88-1.88 1.88V5.83Zm1.88 10.46-1.88 1.88v-3.76l1.88 1.88Z"></path>
</svg>