<svg width="46" height="46" fill="currentColor" viewBox="0 0 24 24" xmlns="http://www.w3.org/2000/svg">
  <path d="M14 7a1 1 0 1 0 0-2 1 1 0 0 0 0 2Z"></path>
  <path d="m13.8 11.48.2.02c.83 0 1.5-.67 1.5-1.5s-.67-1.5-1.5-1.5-1.5.67-1.5 1.5l.02.2c.09.67.61 1.19 1.28 1.28ZM14 3.5c.28 0 .5-.22.5-.5s-.22-.5-.5-.5-.5.22-.5.5.22.5.5.5Zm-4 0c.28 0 .5-.22.5-.5s-.22-.5-.5-.5-.5.22-.5.5.22.5.5.5Z"></path>
  <path d="M18 11a1 1 0 1 0 0-2 1 1 0 0 0 0 2Z"></path>
  <path d="M18 7a1 1 0 1 0 0-2 1 1 0 0 0 0 2Z"></path>
  <path d="M21 10.5c.28 0 .5-.22.5-.5s-.22-.5-.5-.5-.5.22-.5.5.22.5.5.5Z"></path>
  <path d="M10 7a1 1 0 1 0 0-2 1 1 0 0 0 0 2Z"></path>
  <path d="M18 15a1 1 0 1 0 0-2 1 1 0 0 0 0 2Z"></path>
  <path d="M6 19a1 1 0 1 0 0-2 1 1 0 0 0 0 2Z"></path>
  <path d="M14 20.5c-.28 0-.5.22-.5.5s.22.5.5.5.5-.22.5-.5-.22-.5-.5-.5Zm7-7c-.28 0-.5.22-.5.5s.22.5.5.5.5-.22.5-.5-.22-.5-.5-.5Zm-18 0c-.28 0-.5.22-.5.5s.22.5.5.5.5-.22.5-.5-.22-.5-.5-.5Z"></path>
  <path d="M10 19a1 1 0 1 0 0-2 1 1 0 0 0 0 2Z"></path>
  <path d="M3 9.5c-.28 0-.5.22-.5.5s.22.5.5.5.5-.22.5-.5-.22-.5-.5-.5Zm7 11c-.28 0-.5.22-.5.5s.22.5.5.5.5-.22.5-.5-.22-.5-.5-.5Z"></path>
  <path d="M6 15a1 1 0 1 0 0-2 1 1 0 0 0 0 2Z"></path>
  <path d="m2.5 5.27 3.78 3.78L6 9c-.55 0-1 .45-1 1s.45 1 1 1 1-.45 1-1c0-.1-.03-.19-.06-.28l2.81 2.81c-.71.11-1.25.73-1.25 1.47 0 .83.67 1.5 1.5 1.5.74 0 1.36-.54 1.47-1.25l2.81 2.81A.875.875 0 0 0 14 17c-.55 0-1 .45-1 1s.45 1 1 1 1-.45 1-1c0-.1-.03-.19-.06-.28l3.78 3.78h.01l1.41-1.41L3.91 3.86 2.5 5.27Z"></path>
</svg>