<svg width="46" height="46" fill="currentColor" viewBox="0 0 24 24" xmlns="http://www.w3.org/2000/svg">
  <path d="M12 7a2 2 0 0 0 2-2c0-.38-.1-.73-.29-1.03L12 1l-1.71 2.97c-.19.3-.29.65-.29 1.03 0 1.1.9 2 2 2Zm6 3h-5V8h-2v2H6c-1.66 0-3 1.34-3 3v9c0 .55.45 1 1 1h16c.55 0 1-.45 1-1v-9c0-1.66-1.34-3-3-3Zm1 11H5v-3c.9-.01 1.76-.37 2.4-1.01l1.09-1.07 1.07 1.07c1.31 1.31 3.59 1.3 4.89 0l1.08-1.07 1.07 1.07c.64.64 1.5 1 2.4 1.01v3Zm0-4.5c-.51-.01-.99-.2-1.35-.57l-2.13-2.13-2.14 2.13c-.74.74-2.03.74-2.77 0L8.48 13.8l-2.14 2.13c-.35.36-.83.56-1.34.57V13c0-.55.45-1 1-1h12c.55 0 1 .45 1 1v3.5Z"></path>
</svg>