<svg width="46" height="46" fill="currentColor" viewBox="0 0 24 24" xmlns="http://www.w3.org/2000/svg">
  <path d="M18.59 11.09c1.05.51 2.04 1.15 2.96 1.91l-1.07 1.07c-.58-.47-1.21-.89-1.88-1.27v-1.71h-.01Zm-13.19 0v1.7c-.65.37-1.28.79-1.87 1.27l-1.07-1.07c.91-.75 1.9-1.38 2.94-1.9ZM12 7.57c-4.54 0-8.66 1.78-11.71 4.67-.18.18-.29.43-.29.71 0 .28.11.53.29.7l2.48 2.48c.18.18.43.29.71.29.27 0 .52-.1.7-.28.79-.73 1.68-1.36 2.66-1.85.33-.16.56-.51.56-.9v-3.1c1.45-.47 3-.72 4.6-.72 1.6 0 3.15.25 4.59.73v3.1c0 .4.23.74.56.9.98.49 1.88 1.11 2.67 1.85.18.17.43.28.7.28.28 0 .53-.11.71-.29l2.48-2.48c.18-.18.29-.43.29-.71 0-.28-.11-.53-.29-.71A16.971 16.971 0 0 0 12 7.57Z"></path>
</svg>