<svg width="46" height="46" fill="currentColor" viewBox="0 0 24 24" xmlns="http://www.w3.org/2000/svg">
  <path d="M16 7h-1l-1-1h-4L9 7H8c-1.1 0-2 .9-2 2v6c0 1.1.9 2 2 2h8c1.1 0 2-.9 2-2V9c0-1.1-.9-2-2-2Zm0 8H8V9h1.83l1-1h2.34l1 1H16v6Z"></path>
  <path d="M12 14a2 2 0 1 0 0-4 2 2 0 0 0 0 4Z"></path>
  <path d="M8.57.52 13.05 5l1.41-1.41-1.54-1.54C17.7 2.46 21.53 6.24 22 11h2C23.36 3.3 15.79-1.67 8.57.52Z"></path>
  <path d="m9.54 20.41 1.54 1.54C6.3 21.54 2.47 17.76 2 13H0c.64 7.7 8.21 12.67 15.43 10.48L10.95 19l-1.41 1.41Z"></path>
</svg>