<svg width="46" height="46" fill="currentColor" viewBox="0 0 24 24" xmlns="http://www.w3.org/2000/svg">
  <path d="M19 3H5c-1.1 0-2 .9-2 2v14c0 1.1.9 2 2 2h14c1.1 0 2-.9 2-2V5c0-1.1-.9-2-2-2Zm0 16H5V5h14v14Z"></path>
  <path d="M7.5 18a1.5 1.5 0 1 0 0-3 1.5 1.5 0 0 0 0 3Z"></path>
  <path d="M7.5 9a1.5 1.5 0 1 0 0-3 1.5 1.5 0 0 0 0 3Z"></path>
  <path d="M12 13.5a1.5 1.5 0 1 0 0-3 1.5 1.5 0 0 0 0 3Z"></path>
  <path d="M16.5 18a1.5 1.5 0 1 0 0-3 1.5 1.5 0 0 0 0 3Z"></path>
  <path d="M16.5 9a1.5 1.5 0 1 0 0-3 1.5 1.5 0 0 0 0 3Z"></path>
</svg>