<svg width="46" height="46" fill="currentColor" viewBox="0 0 24 24" xmlns="http://www.w3.org/2000/svg">
  <path d="M13.5 2v8h8c0-4.42-3.58-8-8-8Zm2 6V4.34c1.7.6 3.05 1.95 3.66 3.66H15.5Zm-8.56 3-.95-2H2.5v2h2.22s1.89 4.07 2.12 4.42C5.74 16.01 5 17.17 5 18.5 5 20.43 6.57 22 8.5 22c1.76 0 3.22-1.3 3.46-3h2.08c.24 1.7 1.7 3 3.46 3 1.93 0 3.5-1.57 3.5-3.5 0-1.04-.46-1.97-1.18-2.61A7.948 7.948 0 0 0 21.5 11H6.94Zm1.56 9c-.83 0-1.5-.67-1.5-1.5S7.67 17 8.5 17s1.5.67 1.5 1.5S9.33 20 8.5 20Zm9 0c-.83 0-1.5-.67-1.5-1.5s.67-1.5 1.5-1.5 1.5.67 1.5 1.5-.67 1.5-1.5 1.5Zm.74-5.34-.29.37A3.505 3.505 0 0 0 14.34 17h-2.68c-.5-1.04-1.5-1.8-2.68-1.97l-.44-.67c-.1-.17-.34-.69-.67-1.36h11.29c-.21.59-.52 1.15-.92 1.66Z"></path>
</svg>