<svg width="46" height="46" fill="currentColor" viewBox="0 0 24 24" xmlns="http://www.w3.org/2000/svg">
  <path d="M22 3H2C.9 3 0 3.9 0 5v14c0 1.1.9 2 2 2h20c1.1 0 1.99-.9 1.99-2L24 5c0-1.1-.9-2-2-2Zm0 16H2V5h20v14Zm-2.99-1.01L21 16l-1.51-2h-1.64c-.22-.63-.35-1.3-.35-2s.13-1.37.35-2h1.64L21 8l-1.99-1.99A7.474 7.474 0 0 0 16.28 10c-.18.64-.28 1.31-.28 2s.1 1.36.28 2a7.512 7.512 0 0 0 2.73 3.99ZM9 12c1.65 0 3-1.35 3-3s-1.35-3-3-3-3 1.35-3 3 1.35 3 3 3Zm0-4c.55 0 1 .45 1 1s-.45 1-1 1-1-.45-1-1 .45-1 1-1Zm6 8.59c0-2.5-3.97-3.58-6-3.58s-6 1.08-6 3.58V18h12v-1.41ZM5.48 16c.74-.5 2.22-1 3.52-1 1.3 0 2.77.49 3.52 1H5.48Z"></path>
</svg>