<svg width="46" height="46" fill="currentColor" viewBox="0 0 24 24" xmlns="http://www.w3.org/2000/svg">
  <path d="m22.014 10.986-9-9a.996.996 0 0 0-1.41 0l-3.09 3.09 1.41 1.41 2.38-2.37 7.58 7.58-2.38 2.38 1.41 1.41 3.09-3.09c.4-.37.4-1 .01-1.41Z"></path>
  <path d="M13.304 7.196v2.67l2.17 2.17 1.33-1.34-3.5-3.5Z"></path>
  <path d="m1.694 3.916 3.99 3.99-3.09 3.09a.996.996 0 0 0 0 1.41l9 9c.39.39 1.02.39 1.41 0l3.09-3.09 3.99 3.99 1.41-1.41-18.38-18.39-1.42 1.41Zm6.64 6.63c-.01.05-.04.1-.04.15v4h2v-2.18l4.38 4.38-2.37 2.38-7.58-7.58 2.38-2.38 1.23 1.23Z"></path>
</svg>