<svg width="46" height="46" fill="currentColor" viewBox="0 0 24 24" xmlns="http://www.w3.org/2000/svg">
  <path d="M8.245 4.815c1.2-.71 2.58-1.12 4.06-1.12 4.41 0 8 3.59 8 8 0 1.48-.41 2.86-1.12 4.06l1.46 1.46a9.967 9.967 0 0 0 1.66-5.52c0-5.52-4.48-10-10-10-2.04 0-3.93.61-5.51 1.66l1.45 1.46Z"></path>
  <path d="m3.115 2.505-1.42 1.41 2.27 2.27a9.91 9.91 0 0 0-1.66 5.51c0 5.52 4.48 10 10 10 2.04 0 3.93-.61 5.51-1.66l2.27 2.27 1.41-1.41-18.38-18.39Zm9.19 17.19c-4.41 0-8-3.59-8-8 0-1.48.41-2.86 1.12-4.06l3.05 3.06h-1.17v2h3.17l5.88 5.88a7.869 7.869 0 0 1-4.05 1.12Z"></path>
  <path d="m14.135 10.695 2 2h1.17v-2h-3.17Z"></path>
</svg>