<svg width="46" height="46" fill="currentColor" viewBox="0 0 24 24" xmlns="http://www.w3.org/2000/svg">
  <path d="m18.51 15.375-1.41-1.41 4.48-4.48 1.42 1.41-4.49 4.48Zm-3.53-3.53 3.07-3.07-4.25-4.26-3.08 3.07-1.42-1.42 4.5-4.47 7.08 7.08-4.48 4.48-1.42-1.41Zm6.2 9.05-1.41 1.41-5.94-5.94-3.33 3.33H1v-2.63c0-.84.52-1.57 1.3-1.88.58-.23 1.28-.56 1.97-1.02l1.38 1.38c.09.1.22.15.35.15.13 0 .26-.05.36-.15.2-.2.2-.51 0-.71l-1.28-1.28c.27-.24.53-.51.77-.8l1.27 1.27a.485.485 0 0 0 .7 0c.2-.2.2-.51 0-.71l-1.4-1.4c.19-.34.34-.72.45-1.12l1.71 1.72a.485.485 0 0 0 .7 0c.19-.2.19-.5.01-.7l-7.9-7.9 1.42-1.41 18.37 18.39Zm-8.76-5.94-1.67-1.68-3.33 3.32c-.78.78-2.05.78-2.83-.01l-.19-.17-.47.24c-.29.14-.59.27-.89.39l-.01.65h6.64l2.75-2.74Z"></path>
</svg>