<svg width="46" height="46" fill="currentColor" viewBox="0 0 24 24" xmlns="http://www.w3.org/2000/svg">
  <path d="M3.52 3.01 2.1 4.42l5.61 5.61v4.3l-2.6-1.48c-.17-.09-.34-.14-.54-.14-.26 0-.5.09-.7.26l-1.16 1.11 6.8 7.18c.57.6 1.35.94 2.18.94h6.02c.62 0 1.18-.19 1.66-.52l1.12 1.12 1.41-1.41L3.52 3.01ZM17.71 20.2h-6c-.39 0-.64-.23-.75-.36L7.58 16.2h2.13v-4.17l8.14 8.14c-.05.01-.09.03-.14.03Zm-3.17-9h.17V3.45a1.25 1.25 0 0 1 2.5 0v7.75h1V5.45a1.25 1.25 0 0 1 2.5 0v11.92l-2-2V13.2h-2.17l-2-2Zm-.83-.83V2.45a1.25 1.25 0 0 0-2.5 0v5.42l2.5 2.5Zm-3.5-3.5V4.45c0-.69-.56-1.25-1.25-1.25-.67 0-1.2.53-1.24 1.18l2.49 2.49Z"></path>
</svg>