<svg width="46" height="46" fill="currentColor" viewBox="0 0 24 24" xmlns="http://www.w3.org/2000/svg">
  <path d="M18.345 4.26a9.949 9.949 0 0 0-5.32-2.21v2.02c1.46.18 2.79.76 3.9 1.62l1.42-1.43Zm1.61 6.74h2.02c-.2-2.01-1-3.84-2.21-5.32l-1.43 1.42a7.941 7.941 0 0 1 1.62 3.9Zm-1.62 5.9 1.43 1.43a9.981 9.981 0 0 0 2.21-5.32h-2.02a7.945 7.945 0 0 1-1.62 3.89Zm-5.31 3.03v2.02c2.01-.2 3.84-1 5.32-2.21l-1.43-1.43c-1.1.86-2.43 1.44-3.89 1.62Zm2.59-9.34-2.59 2.58V7h-2v6.17l-2.59-2.59L7.025 12l5 5 5-5-1.41-1.41Zm-4.59 9.34v2.02c-5.05-.5-9-4.76-9-9.95 0-5.19 3.95-9.45 9-9.95v2.02c-3.95.49-7 3.85-7 7.93s3.05 7.44 7 7.93Z"></path>
</svg>