<svg width="46" height="46" fill="currentColor" viewBox="0 0 24 24" xmlns="http://www.w3.org/2000/svg">
  <path d="M10.499 11.501h2.12l6.16-6.16-2.12-2.12-6.16 6.16v2.12Zm9.71-9-.71-.71a.996.996 0 0 0-1.41 0l-.72.72 2.12 2.12.72-.72a.996.996 0 0 0 0-1.41Zm-2.81 7.05c.06.36.1.74.1 1.15 0 1.71-1.08 4.64-6 9.14-4.92-4.49-6-7.43-6-9.14 0-4.03 3.09-6.2 6-6.2.32 0 .65.03.97.08l1.65-1.65a8.56 8.56 0 0 0-2.62-.43c-4.2 0-8 3.22-8 8.2 0 3.32 2.67 7.25 8 11.8 5.33-4.55 8-8.48 8-11.8 0-1.01-.16-1.94-.45-2.8l-1.65 1.65Z"></path>
</svg>