<svg width="46" height="46" fill="currentColor" viewBox="0 0 24 24" xmlns="http://www.w3.org/2000/svg">
  <path d="M10.71 2h-8v2h8V2Z"></path>
  <path d="M5.71 11h2V7h3V5h-8v2h3v4Z"></path>
  <path d="m19.891 12.404-7.778 7.778 1.414 1.414 7.778-7.778-1.414-1.414Z"></path>
  <path d="M14.21 16a1.5 1.5 0 1 0 0-3 1.5 1.5 0 0 0 0 3Z"></path>
  <path d="M19.21 21a1.5 1.5 0 1 0 0-3 1.5 1.5 0 0 0 0 3Z"></path>
  <path d="M15.21 11a2.5 2.5 0 0 0 2.5-2.5V4h3V2h-4v4.51c-.42-.32-.93-.51-1.5-.51a2.5 2.5 0 0 0 0 5Z"></path>
  <path d="m9.45 15.96-1.41 1.41-.71-.71.35-.35a2.499 2.499 0 0 0-1.77-4.27 2.499 2.499 0 0 0-1.77 4.27l.35.35-1.06 1.06c-.98.98-.98 2.56 0 3.54.5.5 1.14.74 1.78.74.64 0 1.28-.24 1.77-.73l1.06-1.06 1.41 1.41 1.41-1.41-1.41-1.41 1.41-1.41-1.41-1.43ZM5.56 14.2a.5.5 0 0 1 .35-.15.5.5 0 0 1 .35.15c.19.2.19.51 0 .71l-.35.35-.35-.36a.501.501 0 0 1 0-.7Zm0 5.65a.5.5 0 0 1-.35.15.5.5 0 0 1-.35-.15.513.513 0 0 1 0-.71l1.06-1.06.71.71-1.07 1.06Z"></path>
</svg>