<svg width="46" height="46" fill="currentColor" viewBox="0 0 24 24" xmlns="http://www.w3.org/2000/svg">
  <path d="M19.39 11.25c.07.41.11.82.11 1.25 0 4.41-3.59 8-8 8s-8-3.59-8-8c0-.05.01-.1 0-.14 2.6-.98 4.69-2.99 5.74-5.55 3.38 4.14 7.97 3.73 8.99 3.61l-.89-1.93c-.13.01-4.62.38-7.18-3.86 1.01-.16 1.71-.15 2.59-.01 2.52-1.15 1.93-.89 2.76-1.26a9.62 9.62 0 0 0-4.01-.86c-5.52 0-10 4.48-10 10s4.48 10 10 10 10-4.48 10-10c0-1.43-.3-2.78-.84-4.01l-1.27 2.76ZM7.58 5.53a8.046 8.046 0 0 1-3.66 4.44 8.046 8.046 0 0 1 3.66-4.44Z"></path>
  <path d="M14.5 14.75a1.25 1.25 0 1 0 0-2.5 1.25 1.25 0 0 0 0 2.5Z"></path>
  <path d="M8.5 14.75a1.25 1.25 0 1 0 0-2.5 1.25 1.25 0 0 0 0 2.5Z"></path>
  <path d="m22.5 5-2.4-1.1L19 1.5l-1.1 2.4L15.5 5l2.4 1.1L19 8.5l1.1-2.4L22.5 5Z"></path>
</svg>