<svg width="46" height="46" fill="currentColor" viewBox="0 0 24 24" xmlns="http://www.w3.org/2000/svg">
  <path d="M5.004 15h14V9h-14v6Zm2-4h10v2h-10v-2Z"></path>
  <path d="M13.004 2h-2v3h2V2Z"></path>
  <path d="M19.08 4.596 17.29 6.4l1.42 1.41 1.79-1.803-1.42-1.41Z"></path>
  <path d="M13.004 19h-2v3h2v-3Z"></path>
  <path d="m17.294 17.71 1.79 1.8 1.42-1.42-1.8-1.79-1.41 1.41Z"></path>
  <path d="M4.906 4.602 3.499 6.009 5.288 7.8l1.407-1.41-1.79-1.789Z"></path>
  <path d="m5.298 16.287-1.802 1.79 1.41 1.418 1.802-1.79-1.41-1.418Z"></path>
</svg>