<svg width="46" height="46" fill="currentColor" viewBox="0 0 24 24" xmlns="http://www.w3.org/2000/svg">
  <path d="M18 14c0 3.31-2.69 6-6 6s-6-2.69-6-6 2.69-6 6-6v4l5-5-5-5v4c-4.42 0-8 3.58-8 8s3.58 8 8 8 8-3.58 8-8h-2Zm-7.46 2.22c-.06.05-.12.09-.2.12-.08.03-.17.04-.27.04a.69.69 0 0 1-.45-.15c-.06-.05-.1-.1-.13-.17a.545.545 0 0 1-.05-.22h-.85c0 .21.04.39.12.55.08.16.19.28.33.38.14.1.29.18.46.23.17.05.35.07.53.07.21 0 .41-.03.6-.08s.34-.14.48-.24c.14-.1.24-.24.32-.39.08-.15.12-.33.12-.53 0-.23-.06-.44-.18-.61-.12-.17-.3-.3-.54-.39.1-.05.2-.1.28-.17.08-.07.15-.14.2-.22.05-.08.1-.16.13-.25s.04-.18.04-.27c0-.2-.04-.37-.11-.53a.943.943 0 0 0-.3-.38c-.13-.1-.28-.18-.46-.23-.18-.05-.37-.08-.59-.08-.19 0-.38.03-.54.08-.16.05-.32.13-.44.23s-.23.22-.3.37c-.07.15-.11.3-.11.48h.85a.455.455 0 0 1 .17-.35c.05-.04.11-.07.18-.1.07-.03.14-.03.22-.03.1 0 .18.01.25.04s.13.06.18.11c.05.05.08.11.11.17.03.06.04.14.04.22 0 .18-.05.32-.16.43-.11.11-.26.16-.48.16h-.43v.66h.45c.11 0 .2.01.29.04.09.03.16.06.22.11s.11.12.14.2c.03.08.05.18.05.29 0 .09-.01.17-.04.24-.03.07-.08.11-.13.17Zm3.9-3.44c-.18-.07-.37-.1-.59-.1-.22 0-.41.03-.59.1s-.33.18-.45.33c-.12.15-.23.34-.29.57-.06.23-.1.5-.1.82v.74c0 .32.04.6.11.82.07.22.17.42.3.57.13.15.28.26.46.33s.37.1.59.1c.22 0 .41-.03.59-.1s.33-.18.45-.33c.12-.15.22-.34.29-.57.07-.23.1-.5.1-.82v-.74c0-.32-.04-.6-.11-.82-.07-.22-.17-.42-.3-.57-.13-.15-.28-.26-.46-.33Zm.01 2.57c0 .19-.01.35-.04.48s-.06.24-.11.32c-.05.08-.11.14-.19.17s-.16.05-.25.05-.18-.02-.25-.05a.436.436 0 0 1-.19-.17c-.05-.08-.09-.19-.12-.32s-.04-.29-.04-.48v-.97c0-.19.01-.35.04-.48s.06-.23.12-.31c.06-.08.11-.14.19-.17s.16-.05.25-.05.18.02.25.05c.07.03.14.09.19.17.05.08.09.18.12.31s.04.29.04.48v.97h-.01Z"></path>
</svg>