<svg width="46" height="46" fill="currentColor" viewBox="0 0 24 24" xmlns="http://www.w3.org/2000/svg">
  <path d="m21.689 18.669-5.3-5.3h-.99l-2.54 2.54v.99l5.3 5.3c.39.39 1.02.39 1.41 0l2.12-2.12a.996.996 0 0 0 0-1.41Zm-2.83 1.42-4.24-4.24.71-.71 4.24 4.24-.71.71Z"></path>
  <path d="m17.359 10.689 1.41-1.41 2.12 2.12a3 3 0 0 0 0-4.24l-3.54-3.54-1.41 1.41v-2.82l-.7-.71-3.54 3.54.71.71h2.83l-1.41 1.41 1.06 1.06-2.89 2.89-4.13-4.13v-1.42l-3.02-3.02-2.83 2.83 3.03 3.03h1.41l4.13 4.13-.85.85h-2.12l-5.3 5.3a.996.996 0 0 0 0 1.41l2.12 2.12c.39.39 1.02.39 1.41 0l5.3-5.3v-2.12l5.15-5.15 1.06 1.05Zm-7.98 5.15-4.24 4.24-.71-.71 4.24-4.24.71.71Z"></path>
</svg>