<svg width="46" height="46" fill="currentColor" viewBox="0 0 24 24" xmlns="http://www.w3.org/2000/svg">
  <path d="M17 5.1c.83 0 1.5-.67 1.5-1.5 0-1-1.5-2.7-1.5-2.7s-1.5 1.7-1.5 2.7c0 .83.67 1.5 1.5 1.5Zm-5 0c.83 0 1.5-.67 1.5-1.5 0-1-1.5-2.7-1.5-2.7s-1.5 1.7-1.5 2.7c0 .83.67 1.5 1.5 1.5Zm-5 0c.83 0 1.5-.67 1.5-1.5C8.5 2.6 7 .9 7 .9S5.5 2.6 5.5 3.6c0 .83.67 1.5 1.5 1.5Zm11.92 3.01c-.2-.59-.76-1.01-1.42-1.01h-11c-.66 0-1.21.42-1.42 1.01L3 14.1v8c0 .55.45 1 1 1h1c.55 0 1-.45 1-1v-1h12v1c0 .55.45 1 1 1h1c.55 0 1-.45 1-1v-8l-2.08-5.99ZM6.85 9.1h10.29l1.04 3H5.81l1.04-3ZM19 19.1H5v-4.66l.12-.34h13.77l.11.34v4.66Z"></path>
  <path d="M7.5 18.1a1.5 1.5 0 1 0 0-3 1.5 1.5 0 0 0 0 3Z"></path>
  <path d="M16.5 18.1a1.5 1.5 0 1 0 0-3 1.5 1.5 0 0 0 0 3Z"></path>
</svg>