<svg width="46" height="46" fill="currentColor" viewBox="0 0 24 24" xmlns="http://www.w3.org/2000/svg">
  <path d="M10.72 5.39c0-.66.54-1.2 1.2-1.2.66 0 1.2.54 1.2 1.2l-.01 3.91 1.81 1.79v-5.6c0-1.66-1.34-3-3-3-1.54 0-2.79 1.16-2.96 2.65l1.76 1.76V5.39Zm8.2 6.1h-1.7c0 .58-.1 1.13-.27 1.64l1.27 1.27c.44-.88.7-1.87.7-2.91ZM4.33 3.35 2.92 4.76l6 6v.73c0 1.66 1.34 3 3 3 .23 0 .44-.03.65-.08l1.66 1.66c-.71.33-1.5.52-2.31.52-2.76 0-5.3-2.1-5.3-5.1h-1.7c0 3.41 2.72 6.23 6 6.72v3.28h2v-3.28a7.13 7.13 0 0 0 2.55-.9l4.2 4.2 1.41-1.41L4.33 3.35Z"></path>
</svg>