<svg width="46" height="46" fill="currentColor" viewBox="0 0 24 24" xmlns="http://www.w3.org/2000/svg">
  <path d="M24 8c0-1.1-2-3-2-3s-2 1.9-2 3c0 .74.4 1.38 1 1.72V14h-2v-2c0-.95-.66-1.74-1.55-1.94.34-.58.55-1.25.55-1.97 0-1.31-.65-2.53-1.74-3.25L12 2 7.74 4.84A3.887 3.887 0 0 0 6 8.09c0 .72.21 1.39.55 1.96-.89.21-1.55 1-1.55 1.95v2H3V9.72c.6-.34 1-.98 1-1.72 0-1.1-2-3-2-3S0 6.9 0 8c0 .74.4 1.38 1 1.72V22h10v-4c0-.55.45-1 1-1s1 .45 1 1v4h10V9.72c.6-.34 1-.98 1-1.72ZM8.85 6.5 12 4.4l3.15 2.1c.53.36.85.95.85 1.59 0 1.05-.86 1.91-1.91 1.91H9.91C8.86 10 8 9.14 8 8.09c0-.64.32-1.23.85-1.59ZM21 20h-6v-2c0-1.65-1.35-3-3-3s-3 1.35-3 3v2H3v-4h4v-4h10v4h4v4Z"></path>
</svg>