<svg width="46" height="46" fill="currentColor" viewBox="0 0 24 24" xmlns="http://www.w3.org/2000/svg">
  <path d="M21.105 17.5c-2.47 0-6.57-1.33-8.68-5.43-2.33-4.51-.5-8.48.53-10.07-5.36.19-9.65 4.58-9.65 9.99 0 .14.02.28.02.42.61-.26 1.28-.42 1.98-.42 0-3.09 1.73-5.77 4.3-7.1-.5 2.19-.54 5.04 1.04 8.1 1.57 3.04 4.18 4.95 6.8 5.86a8 8 0 0 1-5.61 1.01c-.37.7-.94 1.27-1.64 1.64.98.32 2.03.5 3.11.5 3.5 0 6.58-1.8 8.37-4.52-.17.01-.37.02-.57.02Z"></path>
  <path d="M8.325 15.99h-.18c-.42-1.16-1.52-2-2.82-2-1.66 0-3 1.34-3 3s1.34 3 3 3h3c1.1 0 2-.9 2-2s-.9-2-2-2Z"></path>
</svg>