<svg width="46" height="46" fill="currentColor" viewBox="0 0 24 24" xmlns="http://www.w3.org/2000/svg">
  <path d="M21.055 4.94h1.6l-3 5.4v-4h-1v-5h4l-1.6 3.6Zm-4.4 5.8v1.77l2 2v-4.17c0-.88-.72-1.6-1.6-1.6h-2.54l-1.28-1.4h-1.75l3.4 3.4h1.77Zm-13.9-9.3-1.41 1.41 5.66 5.66-.21.23h-2.54c-.88 0-1.6.72-1.6 1.6v9.4c0 .88.72 1.6 1.6 1.6h12.8c.75 0 1.38-.52 1.55-1.22l2.54 2.54 1.41-1.41-19.8-19.81Zm9.4 13.4c0 .83-.67 1.5-1.5 1.5s-1.5-.67-1.5-1.5.67-1.5 1.5-1.5 1.5.67 1.5 1.5Zm4.46 4.5H4.655v-8.6h3.02l.59-.65.15-.16 1.5 1.5a3.486 3.486 0 0 0-2.76 3.41c0 1.93 1.57 3.5 3.5 3.5 1.68 0 3.07-1.18 3.42-2.76l2.55 2.55-.01 1.21Z"></path>
</svg>