<svg width="46" height="46" fill="currentColor" viewBox="0 0 24 24" xmlns="http://www.w3.org/2000/svg">
  <path d="m9.56 5.365-1.42-1.41 1.52-1.66h6l1.83 2h3.17c1.1 0 2 .9 2 2v12c0 .05-.01.1-.02.16l-1.98-1.99V6.295h-4.05l-1.83-2h-4.24l-.98 1.07Zm11.59 17.24-2.32-2.31H4.66c-1.1 0-2-.9-2-2v-12c0-.59.27-1.12.68-1.49l-2-2 1.42-1.41 19.8 19.8-1.41 1.41Zm-11.3-11.29c-.11.31-.19.63-.19.98 0 1.66 1.34 3 3 3 .35 0 .67-.08.98-.19l-3.79-3.79Zm6.98 6.98-1.68-1.68c-.73.43-1.58.68-2.49.68-2.76 0-5-2.24-5-5 0-.91.25-1.76.68-2.49l-3.51-3.51h-.17v12h12.17Zm-1.36-7.02 2.07 2.07c.08-.34.12-.69.12-1.05 0-2.76-2.24-5-5-5-.36 0-.71.04-1.06.12l2.07 2.07c.84.3 1.5.96 1.8 1.79Z"></path>
</svg>