<svg width="46" height="46" fill="currentColor" viewBox="0 0 24 24" xmlns="http://www.w3.org/2000/svg">
  <path d="M8.305 19.29c0 1.1-.9 2-2 2s-2-.9-2-2 .9-2 2-2 2 .9 2 2Zm7-11.34v3.51l2 2v-7.9c.58-.68.97-1.27 1.65-1.27.77 0 1.35.66 1.35 1.48v.52h2v-.52c0-1.92-1.48-3.48-3.35-3.48-1.66 0-2.54 1.27-3.18 2.03l-3.5 4.11 1.42 1.42 1.61-1.9Zm4.78 13.95-1.91-1.91c-.29.76-1.01 1.3-1.87 1.3-1.1 0-2-.9-2-2 0-.86.54-1.58 1.3-1.87l-1.13-1.13h-6.74c-.85 0-1.31-1-.76-1.65l2.69-3.16-7.97-7.97 1.41-1.41 18.39 18.39-1.41 1.41Zm-7.61-7.61-1.39-1.39-1.18 1.39h2.57Zm-2.17-10c.29 0 .58.02.86.05l-1.37 1.62 1.42 1.42 3.39-3.99c-1.27-.7-2.74-1.1-4.3-1.1-1.23 0-2.4.25-3.47.7l1.57 1.57a7.09 7.09 0 0 1 1.9-.27Z"></path>
</svg>