<svg width="46" height="46" fill="currentColor" viewBox="0 0 24 24" xmlns="http://www.w3.org/2000/svg">
  <path d="M9.215 12.695c.83 0 1.5.67 1.5 1.5s-.67 1.5-1.5 1.5-1.5-.67-1.5-1.5.67-1.5 1.5-1.5Zm11.28 9.61-1.64-1.64c-.05.01-.09.03-.14.03h-1c-.55 0-1-.45-1-1v-1h-8v1c0 .55-.45 1-1 1h-1c-.55 0-1-.45-1-1v-1.78c-.61-.55-1-1.34-1-2.22v-9.17l-2.61-2.61 1.41-1.41 18.38 18.38-1.4 1.42ZM6.715 8.525v1.17h1.17l-1.17-1.17Zm8.17 8.17-5-5h-3.17v4c0 .37.21.62.34.73l.29.27h7.54Zm-2.17-13c3.69 0 5.11.46 5.66.99h-9.84l2 2h8.18v3.01h-5.17l2 2h3.17v3.17l1.81 1.81c.11-.31.19-.63.19-.98v-10c0-3.5-3.58-4-8-4-2.52 0-4.76.16-6.22.95l1.53 1.53c.86-.28 2.29-.48 4.69-.48Z"></path>
</svg>