<svg width="46" height="46" fill="currentColor" viewBox="0 0 24 24" xmlns="http://www.w3.org/2000/svg">
  <path d="M19.935 21.12c-1.1-2.94-1.64-6.03-1.64-9.12 0-3.09.55-6.18 1.64-9.12a.94.94 0 0 0 .06-.31c0-.34-.23-.57-.63-.57H4.625c-.4 0-.63.23-.63.57 0 .1.02.2.06.31 1.1 2.94 1.65 6.03 1.65 9.12 0 3.09-.55 6.18-1.64 9.12-.05.11-.07.22-.07.31 0 .33.23.57.63.57h14.75c.39 0 .63-.24.63-.57-.01-.1-.03-.2-.07-.31ZM6.535 20c.77-2.6 1.16-5.28 1.16-8 0-2.72-.39-5.4-1.16-8h10.91c-.77 2.6-1.16 5.28-1.16 8 0 2.72.39 5.4 1.16 8H6.535Z"></path>
</svg>