<svg width="46" height="46" fill="currentColor" viewBox="0 0 24 24" xmlns="http://www.w3.org/2000/svg">
  <path d="M18.06 11.57h2.01V0l-20 20h11.56v-2H4.9L18.06 4.83v6.74Zm5.78 8.75-1.07-.83c.02-.16.04-.32.04-.49 0-.17-.01-.33-.04-.49l1.06-.83a.26.26 0 0 0 .06-.32l-1-1.73c-.06-.11-.19-.15-.31-.11l-1.24.5c-.26-.2-.54-.37-.85-.49l-.19-1.32c-.01-.12-.12-.21-.24-.21h-2c-.12 0-.23.09-.25.21l-.19 1.32c-.3.13-.59.29-.85.49l-1.24-.5c-.11-.04-.24 0-.31.11l-1 1.73c-.06.11-.04.24.06.32l1.06.83a3.908 3.908 0 0 0 0 .98l-1.06.83a.26.26 0 0 0-.06.32l1 1.73c.06.11.19.15.31.11l1.24-.5c.26.2.54.37.85.49l.19 1.32c.02.12.12.21.25.21h2c.12 0 .23-.09.25-.21l.19-1.32c.3-.13.59-.29.84-.49l1.25.5c.11.04.24 0 .31-.11l1-1.73a.26.26 0 0 0-.06-.32Zm-4.78.18c-.83 0-1.5-.67-1.5-1.5s.67-1.5 1.5-1.5 1.5.67 1.5 1.5-.67 1.5-1.5 1.5Z"></path>
</svg>