<svg width="46" height="46" fill="currentColor" viewBox="0 0 24 24" xmlns="http://www.w3.org/2000/svg">
  <path d="M20.84 5.22c-.05-.12-.11-.23-.18-.34-.14-.21-.33-.4-.54-.54-.11-.07-.22-.13-.34-.18-.24-.1-.5-.16-.78-.16h-1V2h-2v2H8V2H6v2H5c-.42 0-.8.13-1.12.34-.21.14-.4.33-.54.54-.07.11-.13.22-.18.34-.1.24-.16.5-.16.78v14a2 2 0 0 0 2 2h14c.28 0 .54-.06.78-.16.12-.05.23-.11.34-.18.21-.14.4-.33.54-.54.21-.32.34-.71.34-1.12V6c0-.28-.06-.54-.16-.78ZM5 20V6h14v14H5Zm7-6.12c-2.03 0-6 1.08-6 3.58V19h12v-1.53c0-2.51-3.97-3.59-6-3.59ZM8.31 17c.69-.56 2.38-1.12 3.69-1.12s3.01.56 3.69 1.12H8.31ZM12 13c1.65 0 3-1.35 3-3s-1.35-3-3-3-3 1.35-3 3 1.35 3 3 3Zm0-4c.55 0 1 .45 1 1s-.45 1-1 1-1-.45-1-1 .45-1 1-1Z"></path>
</svg>