<svg width="46" height="46" fill="currentColor" viewBox="0 0 24 24" xmlns="http://www.w3.org/2000/svg">
  <path d="M20 5.5v-1c0-1.1-.9-2-2-2s-2 .9-2 2v1h-1v5h6v-5h-1Zm-1 0h-2v-1c0-.55.45-1 1-1s1 .45 1 1v1Z"></path>
  <path d="m20.2 15.37-3.67-.73c-.5-.1-.83.2-.9.27l-2.52 2.5c-2.5-1.43-4.57-3.5-6-6l2.5-2.52c.23-.24.33-.57.27-.9L9.13 4.3c-.09-.46-.5-.8-.98-.8H4c-.56 0-1.03.47-1 1.03.17 2.89 1.05 5.6 2.43 7.97 1.58 2.73 3.85 4.99 6.57 6.57 2.37 1.37 5.08 2.26 7.97 2.43.55.03 1.03-.43 1.03-1v-4.15c0-.48-.34-.89-.8-.98ZM5.1 5.5h2.23l.47 2.35L6.17 9.5c-.54-1.3-.9-2.63-1.07-4ZM19 19.4c-1.37-.18-2.7-.53-4-1.07l1.65-1.63 2.35.47v2.23Z"></path>
</svg>