<svg width="46" height="46" fill="currentColor" viewBox="0 0 24 24" xmlns="http://www.w3.org/2000/svg">
  <path d="M20 15.725c-1.24 0-2.45-.2-3.57-.57a.84.84 0 0 0-.31-.05c-.26 0-.51.1-.71.29l-2.2 2.2a15.149 15.149 0 0 1-6.59-6.59l2.2-2.2c.28-.28.36-.67.25-1.02a11.36 11.36 0 0 1-.57-3.57c0-.55-.45-1-1-1H4c-.55 0-1 .45-1 1 0 9.39 7.61 17 17 17 .55 0 1-.45 1-1v-3.49c0-.55-.45-1-1-1ZM5.03 5.215h1.5a13 13 0 0 0 .46 2.59l-1.2 1.2c-.41-1.2-.67-2.47-.76-3.79ZM19 19.185c-1.32-.09-2.59-.35-3.8-.75l1.19-1.19c.85.24 1.72.39 2.6.45v1.49H19Zm-1-9.97h-2.59l5.02-5.02-1.41-1.41L14 7.805v-2.59h-2v6h6v-2Z"></path>
</svg>