<svg width="46" height="46" fill="currentColor" viewBox="0 0 24 24" xmlns="http://www.w3.org/2000/svg">
  <path d="M23.7 16.805a16.95 16.95 0 0 0-11.705-4.675A16.95 16.95 0 0 0 .29 16.805c-.18.18-.29.43-.29.711 0 .28.11.53.29.71l2.479 2.484c.18.18.43.29.71.29.27 0 .52-.11.7-.28a11.385 11.385 0 0 1 2.658-1.852c.33-.16.56-.5.56-.901v-3.104c1.45-.48 2.999-.73 4.598-.73 1.6 0 3.149.25 4.598.72v3.104c0 .39.23.74.56.9.98.491 1.87 1.122 2.669 1.853.18.18.43.28.7.28.28 0 .53-.11.71-.29l2.478-2.483c.18-.18.29-.43.29-.71a.985.985 0 0 0-.3-.702Zm-18.302.561c-.66.37-1.29.8-1.87 1.271l-1.069-1.07c.91-.752 1.9-1.392 2.949-1.903v1.702h-.01Zm15.073 1.261c-.6-.48-1.219-.9-1.879-1.271v-1.702c1.05.51 2.03 1.151 2.949 1.902l-1.07 1.071ZM6.997 6.554l4.938 4.945 7.067-7.077L17.592 3l-5.657 5.666-3.538-3.544h2.598V3.12H4.998v6.007h2V6.554Z"></path>
</svg>