<svg width="46" height="46" fill="currentColor" viewBox="0 0 24 24" xmlns="http://www.w3.org/2000/svg">
  <path d="m18.05 13.83-1.43-1.43c.56-.73 1.05-1.5 1.47-2.32l-2.2-2.2c-.28-.28-.36-.67-.25-1.02.37-1.12.57-2.32.57-3.57 0-.55.45-1 1-1h3.5c.55 0 1 .45 1 1 0 3.98-1.37 7.64-3.66 10.54Zm-2.82 2.81a16.884 16.884 0 0 1-10.52 3.65c-.55 0-1-.45-1-1V15.8c0-.55.45-1 1-1 1.24 0 2.45-.2 3.57-.57.1-.04.21-.05.31-.05.26 0 .51.1.71.29l2.2 2.2c.81-.42 1.58-.9 2.3-1.46L2.1 3.51 3.52 2.1 21.9 20.49l-1.41 1.41-5.26-5.26Zm-6.92-.33c-.85.24-1.72.39-2.6.45v1.49c1.32-.09 2.59-.35 3.8-.75l-1.2-1.19Zm9.86-12.02c-.06.89-.21 1.76-.45 2.59l1.2 1.2c.41-1.2.67-2.47.76-3.79h-1.51Z"></path>
</svg>