<svg width="46" height="46" fill="currentColor" viewBox="0 0 24 24" xmlns="http://www.w3.org/2000/svg">
  <path d="m15.446 16.52-3.01-3.01a.441.441 0 0 0-.31-.13c-.07 0-.2.02-.31.13l-3.02 3.02c-.34.34-.87.89-2.64.89l3.71 3.7a3 3 0 0 0 4.24 0l3.72-3.71c-.91 0-1.67-.18-2.38-.89Z"></path>
  <path d="m8.796 7.47 3.02 3.02c.08.08.2.13.31.13.11 0 .23-.05.31-.13l2.99-2.99c.71-.74 1.52-.91 2.43-.91l-3.72-3.71a3 3 0 0 0-4.24 0l-3.71 3.7c1.76 0 2.3.58 2.61.89Z"></path>
  <path d="m21.106 9.85-2.25-2.26h-1.26c-.54 0-1.08.22-1.45.61l-3 3c-.28.28-.65.42-1.02.42a1.5 1.5 0 0 1-1.02-.42l-3.02-3.03c-.38-.38-.9-.6-1.45-.6h-1.47l-2.29 2.3a3 3 0 0 0 0 4.24l2.29 2.3h1.48c.54 0 1.06-.22 1.45-.6l3.02-3.02c.28-.28.65-.42 1.02-.42s.74.14 1.02.42l3.01 3.01c.38.38.9.6 1.45.6h1.26l2.25-2.26a3.042 3.042 0 0 0-.02-4.29Z"></path>
</svg>