<svg width="46" height="46" fill="currentColor" viewBox="0 0 24 24" xmlns="http://www.w3.org/2000/svg">
  <path d="m19.928 8.668-3.6 1.68-2.33-2.33v-1.4l2.33-2.33 3.6 1.68c.38.18.82.01 1-.36.18-.38.01-.82-.36-1l-3.92-1.83a.993.993 0 0 0-1.13.2l-1.74 1.74a.975.975 0 0 0-.78-.4c-.55 0-1 .45-1 1v1h-3.18c-.42-1.16-1.52-2-2.82-2-1.66 0-3 1.34-3 3 0 1.1.6 2.05 1.48 2.58l2.6 8.42h-1.08c-1.1 0-2 .9-2 2v1h13v-1c0-1.1-.9-2-2-2h-1.62l-4.97-9.23c.17-.24.31-.49.41-.77h3.18v1c0 .55.45 1 1 1 .32 0 .6-.16.78-.4l1.74 1.74c.3.3.75.38 1.13.2l3.92-1.83c.38-.18.54-.62.36-1a.753.753 0 0 0-1-.36Zm-13.93-.35c-.55 0-1-.45-1-1s.45-1 1-1 1 .45 1 1-.45 1-1 1Zm5.11 10h-1.94l-2.46-8h.1l4.3 8Z"></path>
</svg>