<svg width="46" height="46" fill="currentColor" viewBox="0 0 24 24" xmlns="http://www.w3.org/2000/svg">
  <path d="M3 11h8V3H3v8Zm2-6h4v4H5V5Z"></path>
  <path d="M3 21h8v-8H3v8Zm2-6h4v4H5v-4Z"></path>
  <path d="M13 3v8h8V3h-8Zm6 6h-4V5h4v4Z"></path>
  <path d="M21 19h-2v2h2v-2Z"></path>
  <path d="M15 13h-2v2h2v-2Z"></path>
  <path d="M17 15h-2v2h2v-2Z"></path>
  <path d="M15 17h-2v2h2v-2Z"></path>
  <path d="M17 19h-2v2h2v-2Z"></path>
  <path d="M19 17h-2v2h2v-2Z"></path>
  <path d="M19 13h-2v2h2v-2Z"></path>
  <path d="M21 15h-2v2h2v-2Z"></path>
</svg>