<svg width="46" height="46" fill="currentColor" viewBox="0 0 24 24" xmlns="http://www.w3.org/2000/svg">
  <path d="M14.75 6c.41 0 .75.34.75.75s-.34.75-.75.75-.75-.34-.75-.75.34-.75.75-.75Zm0-1.5c-1.24 0-2.25 1.01-2.25 2.25S13.51 9 14.75 9 17 7.99 17 6.75 15.99 4.5 14.75 4.5Zm5.75 1c.28 0 .5.22.5.5s-.22.5-.5.5-.5-.22-.5-.5.22-.5.5-.5Zm0-1.5c-1.1 0-2 .9-2 2s.9 2 2 2 2-.9 2-2-.9-2-2-2ZM17 1c-.83 0-1.5.67-1.5 1.5S16.17 4 17 4s1.5-.67 1.5-1.5S17.83 1 17 1Zm4.25 15a1.25 1.25 0 0 0 0-2.5H12.5v-1h6.75c.69 0 1.25-.56 1.25-1.25 0-.67-.53-1.2-1.18-1.24L9.37 10l1.48-2.6c.09-.17.14-.34.14-.54 0-.26-.09-.5-.26-.7L9.62 5l-7.18 6.8c-.6.56-.94 1.35-.94 2.17V20c0 1.66 1.34 3 3 3h13.75a1.25 1.25 0 0 0 0-2.5H12.5v-1h7.75a1.25 1.25 0 0 0 0-2.5H12.5v-1h8.75ZM10.5 21h-6c-.55 0-1-.45-1-1v-6c0-.39.23-.64.36-.75L7.5 9.87V12h3v9Z"></path>
</svg>