<svg width="46" height="46" fill="currentColor" viewBox="0 0 24 24" xmlns="http://www.w3.org/2000/svg">
  <path d="M4 5.005c0-1.1.9-2 2-2s2 .9 2 2-.9 2-2 2-2-.9-2-2Zm4.78 3.58a6.95 6.95 0 0 0-5.56 0A2.01 2.01 0 0 0 2 10.435v.57h8v-.57c0-.81-.48-1.53-1.22-1.85ZM18 7.005c1.1 0 2-.9 2-2s-.9-2-2-2-2 .9-2 2 .9 2 2 2Zm2.78 1.58a6.95 6.95 0 0 0-5.56 0 2.01 2.01 0 0 0-1.22 1.85v.57h8v-.57c0-.81-.48-1.53-1.22-1.85Zm-2.77 4.43-1.41 1.41 1.57 1.58H5.83l1.58-1.59L6 13.005l-4 4 3.99 3.99 1.41-1.41-1.57-1.58h12.34l-1.58 1.58 1.41 1.41 4-3.99-3.99-3.99Z"></path>
</svg>