<svg width="46" height="46" fill="currentColor" viewBox="0 0 24 24" xmlns="http://www.w3.org/2000/svg">
  <path d="M6.1 7c-.34.55-.4.97-.4 1.38 0 .77 1 2.62 1 3.62 0 .95-.4 1.5-.4 1.5H4.8s.4-.55.4-1.5c0-1-1-2.85-1-3.62 0-.41.06-.83.4-1.38h1.5Zm5 0c-.34.55-.4.97-.4 1.38 0 .77 1 2.62 1 3.62 0 .95-.4 1.5-.4 1.5h1.5s.4-.55.4-1.5c0-1-1-2.85-1-3.62 0-.41.06-.83.4-1.38h-1.5ZM7.85 7c-.34.55-.4.97-.4 1.38 0 .77 1 2.63 1 3.62 0 .95-.4 1.5-.4 1.5h1.5s.4-.55.4-1.5c0-1-1-2.85-1-3.62 0-.41.06-.83.4-1.38h-1.5ZM18.3 2c-1.54 0-2.81 1.16-2.98 2.65L14.23 15H3.71c-.6 0-1.09.53-1 1.13C3.23 19.46 6.09 22 9.45 22c3.48 0 6.34-2.73 6.71-6.23L17.31 4.9c.05-.51.47-.9.99-.9.55 0 1 .45 1 1 0 .3-.1 1.25-.1 1.25l1.97.25s.13-1.06.13-1.5c0-1.65-1.35-3-3-3ZM9.45 20c-1.94 0-3.67-1.23-4.43-3h8.79c-.72 1.78-2.42 3-4.36 3Z"></path>
</svg>