<svg width="46" height="46" fill="currentColor" viewBox="0 0 24 24" xmlns="http://www.w3.org/2000/svg">
  <path d="m7 7.575 1.43 1.43A5.05 5.05 0 0 1 12 7.525c1.39 0 2.66.57 3.57 1.48L17 7.575a7.052 7.052 0 0 0-5-2.07c-1.95 0-3.72.79-5 2.07Zm5-6.07c-3.02 0-5.76 1.23-7.75 3.21l1.41 1.41A8.95 8.95 0 0 1 12 3.505c2.47 0 4.72 1 6.34 2.62l1.41-1.41A10.963 10.963 0 0 0 12 1.505Zm2.86 9.01-5.72-.01c-.63 0-1.14.51-1.14 1.14v9.71c0 .63.51 1.14 1.14 1.14h5.71c.63 0 1.14-.51 1.14-1.14v-9.71c.01-.63-.5-1.13-1.13-1.13Zm.14 9.99H9v-8h6v8Z"></path>
</svg>