<svg width="46" height="46" fill="currentColor" viewBox="0 0 24 24" xmlns="http://www.w3.org/2000/svg">
  <path d="M21.962 11.22c-.39-4.21-4.2-7.22-8.4-7.22-.19 0-.38.01-.57.02-10.99.72-10.99 13.18-10.99 13.18v.8c0 1.1.9 2 2 2h10c4.67 0 8.41-4.01 7.96-8.78Zm-16.7.34c.57-1.29 1.28-2.35 2.14-3.19l3.62 1.53c.6.25.98.83.98 1.48 0 .89-.72 1.61-1.61 1.61h-5.67c.15-.46.32-.94.54-1.43Zm13.18 4.48a6.022 6.022 0 0 1-4.44 1.96h-10v-.8c0-.02.01-.92.24-2.2h6.15c1.99 0 3.61-1.62 3.61-3.61 0-1.45-.87-2.76-2.2-3.32l-2.5-1.06c1.1-.57 2.37-.9 3.82-.99.15-.02.3-.02.44-.02 3.31 0 6.13 2.37 6.41 5.41.16 1.72-.38 3.36-1.53 4.63Z"></path>
</svg>