<svg width="46" height="46" fill="currentColor" viewBox="0 0 24 24" xmlns="http://www.w3.org/2000/svg">
  <path d="M14.274 5.54c-.55.95-.22 2.18.73 2.73.95.55 2.18.22 2.73-.73.55-.95.22-2.18-.73-2.73-.95-.55-2.18-.22-2.73.73Z"></path>
  <path d="m15.844 9.95-2.6-1.5c-2.38-1.38-3.2-4.44-1.82-6.82l-1.73-1c-1.59 2.74-1.09 6.12.97 8.31l-5.15 8.92 1.73 1 1.5-2.6 1.73 1-3 5.2 1.73 1 6.29-10.89a5.002 5.002 0 0 1 .31 5.46l1.73 1c1.6-2.75 1.28-6.58-1.69-9.08Z"></path>
  <path d="M12.754 3.34c.72.41 1.63.17 2.05-.55.41-.72.17-1.63-.55-2.05a1.501 1.501 0 0 0-1.5 2.6Z"></path>
</svg>