<svg width="46" height="46" fill="currentColor" viewBox="0 0 24 24" xmlns="http://www.w3.org/2000/svg">
  <path d="m15.041 12.79-8.5-8.5c-.19-.19-.45-.29-.71-.29-.26 0-.51.1-.7.29l-2.84 2.84c-.39.39-.39 1.03 0 1.42l8.5 8.5c.2.2.45.29.71.29.26 0 .51-.1.71-.29l2.83-2.83c.39-.4.39-1.04 0-1.43Zm-3.54 2.13-7.09-7.09 1.42-1.42 7.09 7.09-1.42 1.42Z"></path>
  <path d="m15.757 16.343-1.415 1.414 4.243 4.242L20 20.585l-4.242-4.242Z"></path>
  <path d="M18.501 2c-1.93 0-3.5 1.57-3.5 3.5s1.57 3.5 3.5 3.5 3.5-1.57 3.5-3.5-1.57-3.5-3.5-3.5Zm0 5c-.83 0-1.5-.67-1.5-1.5s.67-1.5 1.5-1.5 1.5.67 1.5 1.5-.67 1.5-1.5 1.5Z"></path>
</svg>