<svg width="46" height="46" fill="currentColor" viewBox="0 0 24 24" xmlns="http://www.w3.org/2000/svg">
  <path d="M19.6 2.489c-2.34-2.34-6.62-1.87-9.55 1.06-1.6 1.6-2.52 3.87-2.54 5.46-.02 1.58.26 3.89-1.35 5.5l-4.24 4.24 1.42 1.42 4.24-4.24c1.61-1.61 3.92-1.33 5.5-1.35 1.58-.02 3.86-.94 5.46-2.54 2.92-2.93 3.4-7.21 1.06-9.55Zm-9.2 9.19c-1.53-1.53-1.05-4.61 1.06-6.72 2.11-2.11 5.18-2.59 6.72-1.06 1.53 1.53 1.05 4.61-1.06 6.72-2.11 2.11-5.18 2.59-6.72 1.06Z"></path>
  <path d="M18.08 16.999c.53 0 1.04.21 1.41.59.78.78.78 2.05 0 2.83-.37.37-.88.58-1.41.58-.53 0-1.04-.21-1.41-.59-.78-.78-.78-2.05 0-2.83.37-.37.88-.58 1.41-.58Zm0-2a3.998 3.998 0 0 0-2.83 6.83c.78.78 1.81 1.17 2.83 1.17a3.998 3.998 0 0 0 2.83-6.83 3.998 3.998 0 0 0-2.83-1.17Z"></path>
</svg>