<svg width="46" height="46" fill="currentColor" viewBox="0 0 24 24" xmlns="http://www.w3.org/2000/svg">
  <path d="M12.51 9.99c0-1.65-1.35-3-3-3s-3 1.35-3 3 1.35 3 3 3 3-1.35 3-3Zm-3 1c-.55 0-1-.45-1-1s.45-1 1-1 1 .45 1 1-.45 1-1 1Zm6.5 2c1.11 0 2-.89 2-2 0-1.11-.89-2-2-2-1.11 0-2.01.89-2 2 0 1.11.89 2 2 2ZM12 2C6.48 2 2 6.48 2 12s4.48 10 10 10 10-4.48 10-10S17.52 2 12 2ZM5.85 17.11C6.53 16.57 8.12 16 9.51 16c.07 0 .15.01.23.01.24-.64.67-1.29 1.3-1.86a9.05 9.05 0 0 0-1.53-.16c-1.3 0-3.39.45-4.73 1.43-.5-1.04-.78-2.2-.78-3.43 0-4.41 3.59-8 8-8s8 3.59 8 8c0 1.2-.27 2.34-.75 3.37-1-.59-2.36-.87-3.24-.87-1.52 0-4.5.81-4.5 2.7v2.78a7.935 7.935 0 0 1-5.66-2.86Z"></path>
</svg>