<svg width="46" height="46" fill="currentColor" viewBox="0 0 24 24" xmlns="http://www.w3.org/2000/svg">
  <path d="M20 4c-1.66 0-3 1.34-3 3v.29L12 3 7 7.29V7c0-1.66-1.34-3-3-3S1 5.34 1 7v14h10v-5c0-.55.45-1 1-1s1 .45 1 1v5h10V7c0-1.66-1.34-3-3-3Zm0 2c.55 0 1 .45 1 1v1h-2V7c0-.55.45-1 1-1ZM4 6c.55 0 1 .45 1 1v1H3V7c0-.55.45-1 1-1ZM3 19v-9h2v9H3Zm14 0h-2v-3c0-1.65-1.35-3-3-3s-3 1.35-3 3v3H7V9.92l5-4.29 5 4.29V19Zm2 0v-9h2v9h-2Z"></path>
  <path d="M12 11.5a1.5 1.5 0 1 0 0-3 1.5 1.5 0 0 0 0 3Z"></path>
</svg>