<svg width="46" height="46" fill="currentColor" viewBox="0 0 24 24" xmlns="http://www.w3.org/2000/svg">
  <path d="M10.46 5.67V3.58c-.66.17-1.29.43-1.88.75l1.5 1.5c.13-.05.25-.11.38-.16Zm10 5.65c0-2.21-.91-4.2-2.36-5.64l2.36-2.36h-6v6l2.24-2.24a6.003 6.003 0 0 1 1.76 4.24c0 .85-.19 1.65-.51 2.38l1.5 1.5a7.921 7.921 0 0 0 1.01-3.88Zm-15.73-8L3.32 4.73l2.36 2.36a7.925 7.925 0 0 0 1.14 9.87l-2.36 2.36h6v-6l-2.24 2.24a6.003 6.003 0 0 1-1.76-4.24c0-1 .25-1.94.68-2.77l8.08 8.08c-.25.13-.5.24-.76.34v2.09c.8-.21 1.55-.54 2.23-.96l2.58 2.58 1.41-1.41L4.73 3.32Z"></path>
</svg>