<svg width="46" height="46" fill="currentColor" viewBox="0 0 24 24" xmlns="http://www.w3.org/2000/svg">
  <path d="M22.25 10V1h-8v9c0 1.86 1.28 3.41 3 3.86V21h-2v2h6v-2h-2v-7.14c1.72-.45 3-2 3-3.86Zm-2-7v3h-4V3h4Zm-4 7V8h4v2c0 1.1-.9 2-2 2s-2-.9-2-2Zm-6-1h-2V8h2a2.5 2.5 0 0 0 0-5h-2V1h-2v2h-2a2.5 2.5 0 0 0 0 5h2v1h-2a2.5 2.5 0 0 0 0 5h2v9h2v-9h2a2.5 2.5 0 0 0 0-5Zm-6-3c-.28 0-.5-.22-.5-.5s.22-.5.5-.5h6c.28 0 .5.22.5.5s-.22.5-.5.5h-6Zm6 6h-6c-.28 0-.5-.22-.5-.5s.22-.5.5-.5h6c.28 0 .5.22.5.5s-.22.5-.5.5Z"></path>
</svg>