<svg width="46" height="46" fill="currentColor" viewBox="0 0 24 24" xmlns="http://www.w3.org/2000/svg">
  <path d="M11.625 8v.86l2 2V8h-2Zm-2-7h6v2h-6V1Zm3 5c3.87 0 7 3.13 7 7 0 1.12-.27 2.18-.74 3.12l1.47 1.47c.8-1.34 1.27-2.91 1.27-4.59 0-2.12-.74-4.07-1.97-5.61l1.42-1.42c-.43-.51-.9-.99-1.41-1.41l-1.42 1.42A8.962 8.962 0 0 0 12.625 4c-1.68 0-3.25.47-4.59 1.27l1.47 1.47c.94-.47 2-.74 3.12-.74Zm-8.84-2.14-1.41 1.41 2.75 2.75a9.043 9.043 0 0 0-1.5 4.98c0 4.97 4.02 9 9 9 1.84 0 3.55-.55 4.98-1.5l2.5 2.5 1.41-1.41L3.785 3.86ZM12.625 20c-3.87 0-7-3.13-7-7 0-1.29.35-2.49.96-3.52l9.57 9.57c-1.04.6-2.24.95-3.53.95Z"></path>
</svg>