<svg width="46" height="46" fill="currentColor" viewBox="0 0 24 24" xmlns="http://www.w3.org/2000/svg">
  <path d="m19.251 10.08-1.35-4.03A2.978 2.978 0 0 0 15.061 4h-5.12c-1.29 0-2.44.82-2.84 2.05l-.79 2.35-1.4-1.4.29-.29a.996.996 0 1 0-1.41-1.41l-2 2a.996.996 0 1 0 1.41 1.41l.3-.3 1.79 1.79c-1.61.52-2.79 2.02-2.79 3.8 0 1.49.83 2.78 2.05 3.47A2.991 2.991 0 0 0 7.501 20c1.3 0 2.4-.84 2.82-2h4.37c.41 1.16 1.51 2 2.82 2 1.49 0 2.73-1.1 2.95-2.53 1.21-.69 2.04-1.98 2.04-3.47 0-1.95-1.4-3.57-3.25-3.92ZM13.501 6h1.56a1 1 0 0 1 .95.68l1.1 3.32h-3.61V6Zm-4.51.68a1 1 0 0 1 .95-.68h1.56v4h-3.59l-.02-.02 1.1-3.3ZM7.501 18c-.55 0-1-.45-1-1s.45-1 1-1 1 .45 1 1-.45 1-1 1Zm10 0c-.55 0-1-.45-1-1s.45-1 1-1 1 .45 1 1-.45 1-1 1Zm2.49-2.68a3.028 3.028 0 0 0-2.49-1.32c-1.3 0-2.4.84-2.82 2h-4.36c-.42-1.16-1.52-2-2.82-2-1.03 0-1.95.53-2.49 1.32-.31-.35-.51-.81-.51-1.32 0-1.1.9-2 2-2h12c1.1 0 2 .9 2 2 0 .51-.2.97-.51 1.32Z"></path>
</svg>