<svg width="46" height="46" fill="currentColor" viewBox="0 0 24 24" xmlns="http://www.w3.org/2000/svg">
  <path d="M8.5 16.5a1.5 1.5 0 1 0 0-3 1.5 1.5 0 0 0 0 3Z"></path>
  <path d="M15.5 16.5a1.5 1.5 0 1 0 0-3 1.5 1.5 0 0 0 0 3Z"></path>
  <path d="M12 2.5c-4 0-8 .5-8 4V16c0 1.93 1.57 3.5 3.5 3.5L6 21v.5h2l2-2h4l2 2h2V21l-1.5-1.5c1.93 0 3.5-1.57 3.5-3.5V6.5c0-3.5-4-4-8-4Zm0 2c3.51 0 4.96.48 5.57 1H6.43c.61-.52 2.06-1 5.57-1Zm-6 3h5v3H6v-3ZM18 16c0 .83-.67 1.5-1.5 1.5h-9c-.83 0-1.5-.67-1.5-1.5v-3.5h12V16Zm0-5.5h-5v-3h5v3Z"></path>
</svg>