<svg width="46" height="46" fill="currentColor" viewBox="0 0 24 24" xmlns="http://www.w3.org/2000/svg">
  <path d="m16.762 5.86-1.68 1.69c.8 1.13.83 2.58.09 3.74l1.7 1.7c1.9-2.02 1.87-4.98-.11-7.13Zm3.31-3.36-1.63 1.63c2.72 2.97 2.76 7.39.14 10.56l1.64 1.64c3.74-3.89 3.71-9.84-.15-13.83ZM9.432 5.54l3.53 3.53a3.979 3.979 0 0 0-3.53-3.53Zm-5.02-2.18-1.41 1.41 2.62 2.62c-.39.61-.62 1.33-.62 2.11 0 2.21 1.79 4 4 4 .78 0 1.5-.23 2.11-.62l4.4 4.4c-1.77-1.18-4.73-1.78-6.51-1.78-2.67 0-8 1.34-8 4v2h16v-2c0-.37-.11-.7-.29-1.02l3.02 3.02 1.41-1.41L4.412 3.36ZM3.002 19.5c.22-.72 3.31-2 6-2 2.7 0 5.8 1.29 6 2h-12Zm6-8c-1.1 0-2-.9-2-2 0-.22.04-.42.11-.62l2.51 2.51c-.2.07-.4.11-.62.11Z"></path>
</svg>