<svg width="46" height="46" fill="currentColor" viewBox="0 0 24 24" xmlns="http://www.w3.org/2000/svg">
  <path d="M5.35 12.5c1.19 0 1.42 1 3.33 1 1.95 0 2.09-1 3.33-1 1.19 0 1.42 1 3.33 1 1.95 0 2.09-1 3.33-1 1.19 0 1.4.98 3.31 1v-2c-1.19 0-1.42-1-3.33-1-1.95 0-2.09 1-3.33 1-1.19 0-1.42-1-3.33-1-1.95 0-2.09 1-3.33 1-1.19 0-1.42-1-3.33-1-1.95 0-2.09 1-3.33 1v2c1.9 0 2.17-1 3.35-1Zm13.32 2c-1.95 0-2.09 1-3.33 1-1.19 0-1.42-1-3.33-1-1.95 0-2.1 1-3.34 1-1.24 0-1.38-1-3.33-1-1.95 0-2.1 1-3.34 1v2c1.95 0 2.11-1 3.34-1 1.24 0 1.38 1 3.33 1 1.95 0 2.1-1 3.34-1 1.19 0 1.42 1 3.33 1 1.94 0 2.09-1 3.33-1 1.19 0 1.42 1 3.33 1v-2c-1.24 0-1.38-1-3.33-1Zm-13.32-6c1.19 0 1.42 1 3.33 1 1.95 0 2.09-1 3.33-1 1.19 0 1.42 1 3.33 1 1.95 0 2.09-1 3.33-1 1.19 0 1.4.98 3.31 1v-2c-1.19 0-1.42-1-3.33-1-1.95 0-2.09 1-3.33 1-1.19 0-1.42-1-3.33-1-1.95 0-2.09 1-3.33 1-1.19 0-1.42-1-3.33-1-1.95 0-2.09 1-3.33 1v2c1.9 0 2.17-1 3.35-1Z"></path>
</svg>