<svg width="46" height="46" fill="currentColor" viewBox="0 0 24 24" xmlns="http://www.w3.org/2000/svg">
  <path d="M12 7.465c-3.31 0-6 2.69-6 6 0 1.66.68 3.15 1.76 4.24l1.42-1.42A3.934 3.934 0 0 1 8 13.465c0-2.21 1.79-4 4-4s4 1.79 4 4c0 1.11-.45 2.1-1.18 2.82l1.42 1.42a6.003 6.003 0 0 0 1.76-4.24c0-3.31-2.69-6-6-6Zm0-4c-5.52 0-10 4.48-10 10 0 2.76 1.12 5.26 2.93 7.07l1.42-1.42A7.94 7.94 0 0 1 4 13.465c0-4.42 3.58-8 8-8 2.53 0 4.78 1.17 6.24 3h2.42c-1.73-2.99-4.96-5-8.66-5Zm0 8c-1.1 0-2 .9-2 2 0 .55.23 1.05.59 1.41.36.36.86.59 1.41.59.55 0 1.05-.23 1.41-.59.36-.36.59-.86.59-1.41 0-1.1-.9-2-2-2Zm8-1h2v6h-2v-6Zm0 8h2v2h-2v-2Z"></path>
</svg>