<svg width="46" height="46" fill="currentColor" viewBox="0 0 24 24" xmlns="http://www.w3.org/2000/svg">
  <path d="M15.92 4.5c1.79 0 3.42.73 4.59 1.91l1.06-1.06A7.94 7.94 0 0 0 15.92 3c-2.21 0-4.21.9-5.66 2.34l1.06 1.06a6.545 6.545 0 0 1 4.6-1.9Z"></path>
  <path d="M15.92 6c-1.38 0-2.63.56-3.54 1.46l1.06 1.06c.63-.63 1.51-1.03 2.47-1.03.96 0 1.84.39 2.47 1.03l1.06-1.06A4.94 4.94 0 0 0 15.92 6Z"></path>
  <path d="M15.92 9c-.55 0-1.05.22-1.41.59L15.92 11l1.41-1.41c-.36-.37-.86-.59-1.41-.59Z"></path>
  <path d="m19.63 14.87-3.67-.73c-.5-.1-.83.2-.9.27l-2.52 2.5c-2.5-1.43-4.57-3.5-6-6l2.5-2.52c.23-.24.33-.57.27-.9L8.56 3.8c-.09-.46-.5-.8-.98-.8H3.43c-.56 0-1.03.47-1 1.03.17 2.89 1.05 5.6 2.43 7.97 1.58 2.73 3.85 4.99 6.57 6.57 2.37 1.37 5.08 2.26 7.97 2.43.55.03 1.03-.43 1.03-1v-4.15c0-.48-.34-.89-.8-.98ZM4.53 5h2.23l.47 2.35L5.6 9c-.54-1.3-.9-2.63-1.07-4Zm13.9 13.9c-1.37-.18-2.7-.53-4-1.07l1.65-1.63 2.35.47v2.23Z"></path>
</svg>