<svg width="46" height="46" fill="currentColor" viewBox="0 0 24 24" xmlns="http://www.w3.org/2000/svg">
  <path d="M16.73 10.77v.2c0 2.34-1.95 5.44-6 9.14-4.05-3.7-6-6.79-6-9.14 0-3.63 2.65-6.2 6-6.2.34 0 .68.03 1 .08V2.83c-.33-.04-.66-.06-1-.06-4.2 0-8 3.22-8 8.2 0 3.32 2.67 7.25 8 11.8 5.33-4.55 8-8.48 8-11.8v-.2h-2Z"></path>
  <path d="M10.73 12.77a2 2 0 1 0 0-4 2 2 0 0 0 0 4Z"></path>
  <path d="m21.27 2.65-1.42-1.42-2.12 2.13-2.12-2.13-1.42 1.42 2.13 2.12-2.13 2.12 1.42 1.42 2.12-2.13 2.12 2.13 1.42-1.42-2.13-2.12 2.13-2.12Z"></path>
</svg>