<?xml version="1.0" encoding="UTF-8" standalone="no"?>
<!-- Created with Inkscape (http://www.inkscape.org/) -->

<svg
   width="48"
   height="48"
   viewBox="0 0 48 48"
   version="1.1"
   id="svg5"
   inkscape:export-filename="/datadisk/Entwicklung/DWP_GWP/sunshine-parks/icons/Fragezeichen.png"
   inkscape:export-xdpi="96"
   inkscape:export-ydpi="96"
   inkscape:version="1.1.2 (0a00cf5339, 2022-02-04)"
   sodipodi:docname="Account.svg"
   xmlns:inkscape="http://www.inkscape.org/namespaces/inkscape"
   xmlns:sodipodi="http://sodipodi.sourceforge.net/DTD/sodipodi-0.dtd"
   xmlns="http://www.w3.org/2000/svg"
   xmlns:svg="http://www.w3.org/2000/svg">
  <sodipodi:namedview
     id="namedview7"
     pagecolor="#ffffff"
     bordercolor="#666666"
     borderopacity="1.0"
     inkscape:pageshadow="2"
     inkscape:pageopacity="0"
     inkscape:pagecheckerboard="true"
     inkscape:document-units="px"
     showgrid="false"
     showguides="true"
     inkscape:zoom="22.627417"
     inkscape:cx="13.656"
     inkscape:cy="27.731844"
     inkscape:window-width="2560"
     inkscape:window-height="1373"
     inkscape:window-x="0"
     inkscape:window-y="0"
     inkscape:window-maximized="1"
     inkscape:current-layer="layer2">
    <inkscape:grid
       type="xygrid"
       id="grid930" />
  </sodipodi:namedview>
  <defs
     id="defs2" />
  <g
     inkscape:groupmode="layer"
     id="layer1"
     inkscape:label="Kreis"
     style="display:inline">
    <path
       style="fill:#000000;fill-opacity:1;stroke-width:0.0776744"
       d="M 22.712409,46.790124 C 18.258772,46.420541 14.128917,44.841163 10.5267,42.12995 9.2834188,41.194192 7.1161433,39.01734 6.1656699,37.749649 3.6437582,34.386056 2.1603017,30.644815 1.6844377,26.448094 1.474755,24.598866 1.6062054,21.565627 1.979243,19.645417 2.687825,15.997995 4.300156,12.534865 6.644899,9.6240389 7.4443066,8.6316331 9.1759519,6.9091137 10.127191,6.1600986 15.575827,1.8697896 22.365738,0.26701032 29.169199,1.6651743 c 2.526679,0.5192522 5.330669,1.6733281 7.566434,3.1142196 2.080483,1.3408182 4.4532,3.5100515 5.915402,5.4080991 6.463841,8.39056 6.377338,19.825107 -0.212494,28.088971 -0.885789,1.110808 -2.754953,2.945486 -3.822601,3.752073 -3.441403,2.599916 -7.0548,4.094249 -11.200367,4.631952 -1.243009,0.161224 -3.554671,0.224942 -4.703164,0.129635 z"
       id="path1653" />
  </g>
  <g
     inkscape:groupmode="layer"
     id="layer2"
     inkscape:label="Account">
    <path
       fill-rule="evenodd"
       d="m 24.026825,0.01905484 c -13.268364,0 -24.03688814,10.77238516 -24.03688814,24.04550416 0,13.273117 10.76852414,24.045504 24.03688814,24.045504 13.268362,0 24.03689,-10.772387 24.03689,-24.045504 0,-13.273119 -10.768528,-24.04550416 -24.03689,-24.04550416 z m 0,7.21365206 c 3.990124,0 7.211067,3.2220961 7.211067,7.2136511 0,3.991552 -3.220943,7.213649 -7.211067,7.213649 -3.990122,0 -7.211066,-3.222097 -7.211066,-7.213649 0,-3.991555 3.220944,-7.2136511 7.211066,-7.2136511 z M 9.6046926,33.634669 a 17.30656,17.312765 0 0 0 28.8442664,0 c -0.0721,-4.785054 -9.638793,-7.406015 -14.422134,-7.406015 -4.807378,0 -14.3500215,2.620961 -14.4221324,7.406015 z"
       clip-rule="evenodd"
       id="path1439"
       style="fill:#c5d3e1;fill-opacity:1;stroke-width:2.40411" />
  </g>
</svg>
